<svg width="400" height="289" viewBox="0 0 400 289" fill="none" xmlns="http://www.w3.org/2000/svg">
<path opacity="0.1" d="M367.238 136.429C354.61 84.8014 287.675 86.6471 250.443 72.4376C198.637 49.5834 151.439 -4.30702 93.4489 1.30568C-16.8208 11.9804 -17.1729 165.15 29.1474 218.639C108.636 310.43 227.892 280.241 320.755 226.815C371.008 197.903 370.013 155.923 367.238 136.429Z" fill="white"/>
<path opacity="0.1" d="M367.238 136.429C354.61 84.8014 287.675 86.6471 250.443 72.4376C198.637 49.5834 151.439 -4.30702 93.4489 1.30568C-16.8208 11.9804 -17.1729 165.15 29.1474 218.639C108.636 310.43 227.892 280.241 320.755 226.815C371.008 197.903 370.013 155.923 367.238 136.429Z" fill="#367CFF"/>
<path d="M68.4158 248.717L293.696 248.717C299.228 248.717 303.713 243.538 303.713 237.15V46.6841C303.713 40.2956 299.228 35.1167 293.696 35.1167L68.4158 35.1167C62.8835 35.1167 58.3987 40.2956 58.3987 46.6841L58.3987 237.15C58.3987 243.538 62.8835 248.717 68.4158 248.717Z" fill="white"/>
<path d="M58.0643 237.152V46.6837C58.0679 43.5151 59.1597 40.4774 61.1002 38.2371C63.0407 35.9968 65.6715 34.7367 68.4154 34.7333H293.696C296.44 34.7367 299.071 35.9971 301.012 38.2379C302.952 40.4787 304.044 43.5169 304.047 46.6859V237.152C304.044 240.321 302.952 243.359 301.012 245.6C299.071 247.841 296.44 249.101 293.696 249.105H68.4154C65.6711 249.101 63.04 247.841 61.0995 245.6C59.1589 243.359 58.0674 240.321 58.0643 237.152ZM68.4154 35.5012C65.8482 35.5046 63.387 36.6837 61.5717 38.7799C59.7564 40.8761 58.7353 43.7183 58.7324 46.6828V237.152C58.7352 240.116 59.7563 242.958 61.5716 245.055C63.3869 247.151 65.8482 248.33 68.4154 248.334H293.696C296.263 248.33 298.724 247.151 300.54 245.055C302.355 242.959 303.376 240.116 303.379 237.152V46.6837C303.376 43.7189 302.355 40.8765 300.54 38.7801C298.724 36.6836 296.263 35.5044 293.696 35.5012H68.4154Z" fill="#292A2E"/>
<path d="M58.3987 46.6829V58.3225H303.711V46.6829C303.711 43.6151 302.656 40.6729 300.777 38.5036C298.899 36.3344 296.351 35.1156 293.694 35.1155H68.4158C65.7591 35.1155 63.2112 36.3342 61.3326 38.5035C59.4541 40.6728 58.3987 43.615 58.3987 46.6829Z" fill="#292A2E"/>
<path d="M192.782 130.744C187.997 131.95 183.765 127.303 181.61 122.865C179.074 117.642 178.029 111.552 174.853 106.726C172.004 102.475 167.855 99.6423 163.256 98.8075C161.168 98.3842 159.028 98.4371 156.958 98.9633C155.995 99.24 155.055 99.6119 154.147 100.075C150.221 102.053 147.048 105.624 144.582 109.604C141.667 114.309 139.653 119.739 138.273 125.281C136.714 131.65 135.919 138.236 135.909 144.854C135.866 151.876 136.68 158.87 138.327 165.629C140.03 172.666 142.746 179.322 146.362 185.318C150.229 191.654 155.117 197.07 160.758 201.273C163.882 203.591 167.195 205.55 170.651 207.122C174.787 208.936 179.156 209.942 183.579 210.097C193.241 210.581 203.051 207.979 211.793 203.287C213.949 202.132 216.043 200.828 218.063 199.382C218.704 198.924 218.116 197.751 217.471 198.212C209.19 204.112 199.819 207.668 190.122 208.591C185.581 209.065 181.005 208.778 176.536 207.737C172.711 206.73 169.025 205.119 165.58 202.952C159.582 199.338 154.254 194.403 149.897 188.425C145.919 182.883 142.813 176.579 140.72 169.799C138.69 163.244 137.497 156.383 137.18 149.431C136.853 142.852 137.295 136.252 138.494 129.809C139.523 124.04 141.335 118.494 143.863 113.377C146.009 109.157 148.826 105.226 152.421 102.654C154.013 101.472 155.776 100.632 157.627 100.176C162.053 99.1368 166.906 100.702 170.521 103.709C172.385 105.282 173.945 107.285 175.103 109.591C176.417 112.158 177.329 114.957 178.291 117.715C179.224 120.39 180.188 123.104 181.649 125.462C182.991 127.723 184.766 129.597 186.837 130.937C188.741 132.16 190.961 132.556 193.096 132.051C193.833 131.866 193.521 130.561 192.783 130.745L192.782 130.744Z" fill="#367CFF"/>
<path d="M309.093 178.608C309.183 178.594 310.178 197.666 329.365 196.003C342.648 194.855 347.384 178.581 347.688 178.581C346.256 178.229 343.844 177.718 343.208 177.326C341.117 176.029 338.529 174.678 337.855 169.988C337.466 167.285 338.125 153.455 337.922 150.719L317.533 155.977C317.818 161.753 319.812 175.145 312.823 177.515C311.66 177.905 310.408 178.266 309.093 178.608Z" fill="#E98862"/>
<path opacity="0.52" d="M317.247 172.04C317.567 170.852 317.773 169.627 317.861 168.386C318.085 165.556 318.04 162.706 317.727 159.887C321.872 159.241 325.776 157.266 328.996 154.186C329.375 155.801 331.457 162.855 330.881 164.39C329.791 167.291 324.67 172.04 317.247 172.04Z" fill="#0C0C0C"/>
<path d="M310.263 130.511C310.263 130.511 305.438 124.202 306.042 112.43C306.51 103.316 312.573 110.717 312.573 110.717C312.573 110.717 312.964 104.159 316.881 105.74C320.797 107.32 321.872 114.559 321.872 114.559" fill="#0C0C0C"/>
<path d="M337.575 111.385C337.575 111.385 357.13 118.56 344.388 148.142L342.595 147.863L338.957 147.297" fill="#0C0C0C"/>
<path d="M320.126 165.907C328.152 166.946 338.6 163.411 340.914 151.088L343.003 139.968C345.317 127.645 341.588 116.253 331.541 113.735C321.493 111.219 312.106 119.328 309.791 131.651L308.867 136.575C308.575 138.272 308.383 139.989 308.294 141.716C308.027 146.278 307.638 153.216 309.443 158.396C311.149 163.285 314.998 165.245 320.126 165.907Z" fill="#E98862"/>
<path d="M312.611 137.333C313.312 137.333 313.881 136.676 313.881 135.866C313.881 135.055 313.312 134.399 312.611 134.399C311.909 134.399 311.34 135.055 311.34 135.866C311.34 136.676 311.909 137.333 312.611 137.333Z" fill="#0C0C0C"/>
<path d="M324.722 139.58C325.424 139.58 325.993 138.923 325.993 138.113C325.993 137.302 325.424 136.646 324.722 136.646C324.02 136.646 323.452 137.302 323.452 138.113C323.452 138.923 324.02 139.58 324.722 139.58Z" fill="#0C0C0C"/>
<path opacity="0.5" d="M319.733 154.504C318.072 154.345 316.466 153.737 315.046 152.729C315.015 152.71 314.988 152.684 314.966 152.652C314.944 152.621 314.928 152.584 314.919 152.545C314.91 152.506 314.907 152.466 314.912 152.426C314.916 152.386 314.928 152.347 314.945 152.312C314.963 152.278 314.987 152.247 315.015 152.223C315.043 152.199 315.075 152.182 315.109 152.172C315.143 152.163 315.178 152.161 315.212 152.168C315.247 152.174 315.28 152.189 315.309 152.211C318.38 154.294 321.356 154.499 323.916 152.802C323.967 152.766 324.021 152.734 324.076 152.704C324.139 152.677 324.209 152.679 324.271 152.71C324.332 152.741 324.381 152.799 324.407 152.871C324.433 152.943 324.434 153.024 324.409 153.096C324.384 153.169 324.336 153.227 324.275 153.26C324.255 153.27 324.221 153.293 324.175 153.324C322.829 154.219 321.283 154.63 319.733 154.504Z" fill="#0C0C0C"/>
<path opacity="0.52" d="M319.496 157.342C319.195 157.319 318.896 157.266 318.603 157.184C318.536 157.165 318.478 157.117 318.442 157.049C318.405 156.981 318.394 156.899 318.41 156.822C318.426 156.744 318.468 156.677 318.527 156.636C318.586 156.594 318.657 156.581 318.724 156.599C320.487 157.085 321.446 156.266 321.486 156.23C321.541 156.182 321.61 156.16 321.679 156.17C321.747 156.18 321.809 156.221 321.851 156.284C321.894 156.347 321.912 156.427 321.904 156.506C321.895 156.585 321.859 156.657 321.805 156.706C321.122 157.219 320.306 157.444 319.496 157.342Z" fill="#0C0C0C"/>
<path d="M339.585 154.686C342.639 155.45 345.823 152.298 346.485 148.772C347.147 145.246 345.038 142.681 341.983 141.917L339.966 143.885L336.96 154.028L339.585 154.686Z" fill="#E98862"/>
<path d="M337.541 148.289C337.541 148.289 339.59 130.564 335.189 128.405C332.259 126.967 323.962 130.232 317.36 127.105C314.473 125.737 311.469 125.925 310.89 127.495C310.661 128.117 310.433 118.352 316.386 112.381C321.125 107.627 333.664 108.919 338.916 112.077C353.457 120.824 342.479 142.836 342.479 142.836L340.727 148.701L337.541 148.289Z" fill="#0C0C0C"/>
<g opacity="0.52">
<path opacity="0.52" d="M317.1 149.461C317.093 149.461 317.087 149.461 317.081 149.457C316.096 149.214 314.468 148.679 314.625 147.828C314.756 147.124 317.837 139.929 318.188 139.109C318.202 139.073 318.223 139.041 318.248 139.014C318.273 138.987 318.303 138.966 318.336 138.953C318.368 138.939 318.403 138.934 318.437 138.936C318.471 138.938 318.505 138.949 318.536 138.966C318.567 138.984 318.594 139.009 318.617 139.039C318.639 139.069 318.656 139.104 318.666 139.142C318.677 139.18 318.681 139.22 318.677 139.259C318.674 139.299 318.664 139.337 318.648 139.372C317.281 142.558 315.216 147.471 315.127 147.95C315.187 148.176 316.169 148.624 317.188 148.876C317.252 148.893 317.308 148.937 317.345 149.001C317.381 149.064 317.395 149.141 317.384 149.215C317.373 149.29 317.337 149.357 317.285 149.402C317.232 149.448 317.166 149.468 317.101 149.459L317.1 149.461Z" fill="#0C0C0C"/>
</g>
<path d="M316.939 131.441C315.973 130.872 314.891 130.614 313.809 130.696C313.277 130.732 312.753 130.86 312.254 131.075C311.761 131.286 311.292 131.568 310.86 131.914C310.789 131.968 310.739 132.051 310.72 132.146C310.702 132.242 310.716 132.342 310.76 132.425C310.804 132.508 310.875 132.569 310.956 132.593C311.038 132.618 311.125 132.604 311.199 132.556L311.222 132.541C311.618 132.26 312.043 132.037 312.488 131.878C312.926 131.719 313.382 131.637 313.842 131.636C314.75 131.625 315.644 131.892 316.434 132.408L316.464 132.429C316.576 132.505 316.709 132.527 316.835 132.49C316.96 132.453 317.068 132.359 317.134 132.23C317.2 132.101 317.22 131.947 317.187 131.802C317.155 131.657 317.074 131.532 316.963 131.456L316.939 131.441Z" fill="#0C0C0C"/>
<path d="M324.17 133.735C325.05 133.478 325.974 133.495 326.847 133.784C327.289 133.926 327.711 134.144 328.096 134.431C328.489 134.72 328.848 135.065 329.166 135.458L329.183 135.478C329.243 135.546 329.324 135.585 329.408 135.586C329.492 135.587 329.573 135.551 329.635 135.484C329.696 135.418 329.733 135.326 329.737 135.229C329.742 135.132 329.713 135.037 329.658 134.964C329.32 134.498 328.933 134.082 328.506 133.728C328.074 133.368 327.598 133.084 327.093 132.887C326.068 132.478 324.967 132.396 323.905 132.648C323.78 132.682 323.672 132.771 323.604 132.896C323.535 133.021 323.512 133.172 323.539 133.317C323.565 133.461 323.64 133.588 323.747 133.67C323.854 133.751 323.984 133.781 324.11 133.753L324.135 133.746L324.17 133.735Z" fill="#0C0C0C"/>
<path d="M326.991 114.958C328.367 111.271 327.723 107.406 325.554 106.327C323.384 105.247 320.51 107.361 319.134 111.049C317.758 114.737 318.401 118.601 320.571 119.681C322.741 120.76 325.615 118.646 326.991 114.958Z" fill="#0C0C0C"/>
<path d="M329.746 191.248C343.082 190.522 343.643 177.451 343.643 177.451C343.643 177.451 350.251 177.944 354.644 178.631C361.836 179.754 366.58 182.57 370.356 186.93C373.868 190.985 376.006 195.373 373.743 223.389C372.105 243.671 373.258 288.292 373.258 288.292H292.771C292.771 288.292 287.945 229.81 287.272 220.679C285.988 203.246 284.946 188.061 288.079 184.442C294.523 177.002 307.169 177.451 312.708 177.452C312.798 177.452 311.584 192.237 329.746 191.248Z" fill="#367CFF"/>
<path d="M307.696 254.236L295.988 246.713C295.731 246.548 295.446 246.446 295.153 246.415C294.86 246.383 294.565 246.423 294.285 246.531C294.006 246.638 293.749 246.812 293.531 247.041C293.314 247.269 293.139 247.548 293.02 247.858C292.814 248.44 292.803 249.089 292.988 249.679C293.173 250.269 293.542 250.759 294.022 251.054L296.533 252.666L286.622 251.779C285.521 251.657 284.104 252.321 284.068 253.756C284.023 254.307 284.141 254.859 284.403 255.323C284.664 255.787 285.054 256.134 285.509 256.309C285.505 256.321 285.503 256.333 285.502 256.345C285.502 256.355 285.503 256.364 285.504 256.373L283.807 256.187C283.493 256.152 283.176 256.2 282.88 256.325C282.583 256.45 282.315 256.65 282.093 256.91C281.872 257.17 281.704 257.484 281.602 257.829C281.499 258.173 281.464 258.54 281.499 258.902C281.565 259.472 281.798 259.998 282.16 260.393C282.521 260.787 282.989 261.027 283.485 261.071L284.207 261.15C284.215 261.175 284.226 261.199 284.241 261.219C283.742 261.296 283.283 261.575 282.946 262.007C282.609 262.439 282.417 262.995 282.402 263.576C282.403 264.212 282.611 264.824 282.985 265.29C283.359 265.757 283.872 266.043 284.421 266.092L286.215 266.289C286.188 266.307 286.165 266.332 286.148 266.362C286.131 266.392 286.12 266.427 286.117 266.463C286.115 266.505 286.124 266.548 286.143 266.585C285.715 266.796 285.359 267.163 285.13 267.631C284.901 268.098 284.812 268.639 284.875 269.171C284.951 269.728 285.188 270.239 285.547 270.622C285.907 271.004 286.367 271.235 286.854 271.278L301.988 272.94C304.105 273.172 306.233 272.669 308.101 271.495C309.969 270.322 311.491 268.53 312.471 266.351C313.317 264.472 313.495 262.287 312.967 260.259C312.439 258.231 311.248 256.52 309.645 255.491L307.696 254.236Z" fill="#E98862"/>
<g opacity="0.2">
<path opacity="0.2" d="M295.315 257.244C295.31 257.303 295.285 257.357 295.246 257.395C295.207 257.433 295.156 257.451 295.105 257.446L285.681 256.588C285.655 256.586 285.63 256.578 285.607 256.564C285.584 256.55 285.564 256.532 285.547 256.509C285.53 256.487 285.517 256.46 285.509 256.432C285.502 256.404 285.498 256.374 285.5 256.344C285.503 256.315 285.51 256.286 285.521 256.259C285.533 256.233 285.549 256.209 285.569 256.19C285.588 256.17 285.611 256.156 285.636 256.147C285.66 256.137 285.686 256.134 285.712 256.136L295.136 256.995C295.162 256.997 295.187 257.005 295.209 257.019C295.232 257.032 295.253 257.051 295.269 257.073C295.286 257.096 295.299 257.122 295.307 257.15C295.315 257.178 295.318 257.208 295.316 257.238L295.315 257.244Z" fill="#0C0C0C"/>
<path opacity="0.2" d="M295.102 262.054C295.097 262.113 295.072 262.167 295.033 262.205C294.993 262.242 294.943 262.261 294.892 262.256L284.374 261.299C284.348 261.296 284.324 261.288 284.301 261.275C284.278 261.261 284.257 261.243 284.241 261.22C284.224 261.198 284.211 261.171 284.203 261.143C284.196 261.115 284.192 261.085 284.195 261.056C284.2 260.997 284.225 260.942 284.264 260.904C284.303 260.865 284.354 260.845 284.405 260.848L294.923 261.806C294.948 261.808 294.973 261.816 294.996 261.83C295.019 261.843 295.039 261.862 295.056 261.884C295.073 261.907 295.085 261.933 295.093 261.961C295.101 261.99 295.104 262.019 295.102 262.049L295.102 262.054Z" fill="#0C0C0C"/>
<path opacity="0.2" d="M294.897 267.265C294.892 267.324 294.867 267.378 294.828 267.416C294.788 267.454 294.738 267.472 294.687 267.468L286.297 266.704C286.245 266.699 286.197 266.671 286.163 266.625C286.13 266.579 286.113 266.52 286.117 266.46C286.121 266.4 286.146 266.345 286.185 266.306C286.225 266.267 286.276 266.247 286.328 266.252L294.718 267.016C294.743 267.018 294.768 267.026 294.791 267.04C294.814 267.053 294.834 267.072 294.851 267.095C294.868 267.117 294.881 267.143 294.888 267.171C294.896 267.2 294.899 267.229 294.897 267.259L294.897 267.265Z" fill="#0C0C0C"/>
</g>
<path d="M301.047 278.492L374.136 287.967C376.389 288.25 378.668 287.927 380.795 287.022C382.922 286.117 384.838 284.655 386.393 282.751C387.949 280.848 389.101 278.553 389.759 276.049C390.418 273.545 390.565 270.898 390.189 268.317L374.603 196.222C374.284 194.028 373.593 191.928 372.571 190.043C371.549 188.157 370.215 186.523 368.645 185.233C365.476 182.627 361.54 181.582 357.703 182.327C353.867 183.072 350.444 185.547 348.187 189.207C345.931 192.867 345.025 197.412 345.671 201.843L357.624 254.349L304.515 248.228L301.047 278.492Z" fill="#367CFF"/>
<path d="M367.151 255.924C367.203 255.929 367.254 255.909 367.293 255.87C367.333 255.831 367.357 255.775 367.361 255.715C367.365 255.655 367.348 255.596 367.314 255.551C367.28 255.505 367.232 255.477 367.18 255.473L358.07 253.897C358.045 253.893 358.019 253.894 357.993 253.901C357.968 253.908 357.945 253.92 357.924 253.938C357.903 253.956 357.886 253.978 357.873 254.004C357.86 254.029 357.851 254.058 357.847 254.087C357.84 254.146 357.853 254.207 357.884 254.255C357.914 254.303 357.96 254.335 358.012 254.344L367.122 255.919C367.131 255.922 367.141 255.924 367.151 255.924Z" fill="#0C0C0C"/>
<path d="M372.101 288.293C372.153 288.296 372.204 288.276 372.243 288.237C372.282 288.197 372.306 288.141 372.309 288.081C372.312 288.021 372.295 287.962 372.261 287.917C372.226 287.872 372.178 287.845 372.126 287.841L301.457 278.321L304.882 248.507L357.624 254.347C357.654 254.351 357.685 254.348 357.714 254.336C357.743 254.324 357.769 254.305 357.79 254.28C357.812 254.255 357.827 254.224 357.837 254.19C357.846 254.156 357.848 254.12 357.843 254.086L352.135 223.395C352.131 223.365 352.122 223.337 352.109 223.312C352.095 223.286 352.078 223.264 352.057 223.247C352.036 223.23 352.012 223.217 351.987 223.211C351.961 223.205 351.935 223.204 351.91 223.209C351.859 223.219 351.813 223.252 351.783 223.301C351.753 223.35 351.741 223.411 351.75 223.47L357.413 253.859L304.734 248.028C304.708 248.024 304.682 248.026 304.656 248.034C304.631 248.042 304.608 248.056 304.587 248.075C304.567 248.093 304.549 248.117 304.537 248.143C304.524 248.169 304.516 248.198 304.514 248.228L301.046 278.494C301.04 278.553 301.055 278.612 301.086 278.658C301.118 278.705 301.164 278.735 301.215 278.743L372.074 288.293C372.083 288.293 372.092 288.293 372.101 288.293Z" fill="#0C0C0C"/>
<path d="M221.868 132.608C221.776 132.292 221.63 132.002 221.439 131.753C221.247 131.505 221.013 131.305 220.752 131.165C220.491 131.024 220.208 130.947 219.92 130.937C219.632 130.927 219.346 130.985 219.078 131.107C218.566 131.364 218.159 131.836 217.937 132.427C217.716 133.018 217.697 133.684 217.884 134.291L218.792 137.426L211.995 129.049C211.252 128.101 209.819 127.489 208.954 128.519C208.6 128.891 208.364 129.39 208.287 129.936C208.21 130.482 208.295 131.042 208.528 131.524C208.518 131.53 208.509 131.538 208.5 131.546C208.495 131.554 208.49 131.561 208.486 131.569L208.449 131.52C208.238 131.251 207.978 131.04 207.688 130.901C207.398 130.762 207.085 130.7 206.771 130.718C206.457 130.735 206.151 130.833 205.874 131.004C205.597 131.176 205.357 131.415 205.17 131.707C204.88 132.178 204.741 132.751 204.775 133.328C204.809 133.905 205.015 134.45 205.357 134.872L205.731 135.363C205.722 135.389 205.716 135.416 205.715 135.443C205.313 135.135 204.826 135.007 204.348 135.083C203.869 135.159 203.431 135.434 203.115 135.856C202.736 136.328 202.527 136.949 202.529 137.593C202.532 138.237 202.746 138.856 203.128 139.325C203.069 139.311 203.094 139.442 203.045 139.494C203.018 139.524 203 139.562 202.992 139.604C202.565 139.431 202.102 139.421 201.669 139.574C201.237 139.728 200.858 140.037 200.588 140.457C200.299 140.928 200.159 141.501 200.193 142.078C200.227 142.655 200.433 143.2 200.775 143.622L210.974 156.639C212.401 158.46 214.266 159.748 216.331 160.337C218.396 160.926 220.565 160.789 222.562 159.945L228.992 157.226L221.868 132.608Z" fill="#E98862"/>
<path opacity="0.2" d="M203.771 147.563C204.148 148.028 204.659 148.317 205.208 148.376C205.279 148.385 205.351 148.389 205.423 148.389C205.772 148.394 206.117 148.304 206.431 148.127C206.745 147.95 207.018 147.69 207.229 147.368C207.44 147.047 207.583 146.672 207.645 146.276C207.708 145.879 207.689 145.471 207.59 145.084C207.909 145.334 208.277 145.488 208.661 145.532C208.734 145.54 208.808 145.544 208.882 145.544C209.246 145.549 209.605 145.455 209.931 145.268C210.257 145.081 210.54 144.808 210.757 144.47C210.973 144.133 211.117 143.741 211.177 143.326C211.237 142.912 211.21 142.487 211.1 142.086C211.403 142.309 211.747 142.446 212.105 142.488C212.178 142.496 212.252 142.5 212.326 142.5C212.645 142.503 212.962 142.429 213.256 142.284C213.55 142.139 213.814 141.926 214.034 141.658C214.442 141.125 214.661 140.435 214.647 139.724C214.633 139.014 214.387 138.335 213.958 137.825L209.437 132.204C209.42 132.182 209.399 132.164 209.375 132.151C209.352 132.138 209.326 132.131 209.3 132.129C209.274 132.128 209.248 132.132 209.224 132.143C209.199 132.153 209.177 132.169 209.158 132.19C209.139 132.21 209.124 132.235 209.113 132.262C209.102 132.289 209.096 132.319 209.096 132.349C209.095 132.379 209.099 132.409 209.109 132.437C209.118 132.465 209.133 132.49 209.151 132.512L213.673 138.134C214.034 138.56 214.242 139.127 214.257 139.723C214.271 140.318 214.091 140.898 213.751 141.347C213.568 141.569 213.347 141.746 213.102 141.867C212.858 141.988 212.594 142.05 212.328 142.049C212.062 142.048 211.799 141.985 211.555 141.863C211.311 141.741 211.091 141.563 210.908 141.34C210.875 141.299 210.619 140.998 210.517 140.873L206.111 135.31C206.076 135.265 206.028 135.238 205.976 135.234C205.924 135.231 205.873 135.251 205.835 135.291C205.796 135.331 205.772 135.387 205.769 135.447C205.766 135.507 205.784 135.565 205.819 135.61L210.229 141.178C210.59 141.604 210.798 142.171 210.813 142.766C210.827 143.362 210.647 143.942 210.307 144.39C210.124 144.613 209.903 144.79 209.659 144.91C209.414 145.031 209.151 145.093 208.886 145.093C208.62 145.092 208.357 145.029 208.113 144.908C207.869 144.786 207.649 144.609 207.466 144.386L203.374 139.374C203.339 139.332 203.291 139.307 203.24 139.305C203.189 139.303 203.14 139.324 203.102 139.364C203.064 139.403 203.041 139.458 203.038 139.517C203.035 139.575 203.052 139.633 203.085 139.678L206.723 144.159C207.071 144.57 207.273 145.118 207.287 145.693C207.301 146.267 207.126 146.827 206.798 147.26C206.622 147.474 206.409 147.645 206.173 147.761C205.937 147.878 205.684 147.938 205.427 147.937C205.171 147.937 204.917 147.876 204.682 147.759C204.446 147.642 204.234 147.471 204.057 147.256L203.771 147.563Z" fill="#0C0C0C"/>
<path d="M212.308 134.221C211.851 134.221 211.412 134.016 211.084 133.648C209.86 132.28 208.419 130.885 208 130.664C206.237 129.753 203.565 129.303 202.685 129.206C202.452 129.184 202.226 129.109 202.019 128.986C201.812 128.862 201.628 128.692 201.479 128.486C201.329 128.279 201.216 128.041 201.147 127.784C201.078 127.527 201.054 127.256 201.076 126.988C201.098 126.72 201.166 126.46 201.275 126.223C201.385 125.985 201.535 125.775 201.715 125.605C201.896 125.435 202.104 125.308 202.328 125.231C202.551 125.155 202.785 125.13 203.017 125.159C203.17 125.176 206.79 125.585 209.438 126.953C210.682 127.596 212.887 130.005 213.534 130.728C213.785 131.01 213.958 131.372 214.031 131.768C214.103 132.164 214.071 132.576 213.94 132.951C213.808 133.326 213.583 133.647 213.292 133.874C213.001 134.1 212.659 134.221 212.308 134.221Z" fill="#E98862"/>
<path d="M192.427 133.947L192.978 128.015L231.698 132.221L231.146 138.152L192.427 133.947Z" fill="#367CFF"/>
<path opacity="0.5" d="M192.427 133.947L192.978 128.015L231.698 132.221L231.146 138.152L192.427 133.947Z" fill="white"/>
<path d="M235.405 138.666L235.957 132.734L231.698 132.221L231.146 138.152L235.405 138.666Z" fill="#262626"/>
<path d="M192.427 133.947C192.427 133.947 191.147 132.904 190.002 131.966C189.095 131.223 188.273 130.545 188.245 130.505C188.89 130.092 189.556 129.725 190.24 129.405C191.53 128.737 192.978 128.015 192.978 128.015L192.427 133.947Z" fill="#367CFF"/>
<path opacity="0.9" d="M192.427 133.947C192.427 133.947 191.147 132.904 190.002 131.966C189.095 131.223 188.273 130.545 188.245 130.505C188.89 130.092 189.556 129.725 190.24 129.405C191.53 128.737 192.978 128.015 192.978 128.015L192.427 133.947Z" fill="white"/>
<path d="M190.003 131.967C189.096 131.223 188.274 130.545 188.246 130.505C188.891 130.093 189.557 129.725 190.241 129.405L190.003 131.967Z" fill="#262626"/>
<path d="M192.61 132.101L231.32 136.199L231.296 136.47L192.586 132.372L192.61 132.101Z" fill="white"/>
<path d="M192.825 129.78L231.535 133.878L231.511 134.149L192.8 130.051L192.825 129.78Z" fill="white"/>
<path d="M219.089 138.592L217.884 134.29C217.697 133.684 217.716 133.018 217.937 132.427C218.159 131.836 218.566 131.364 219.078 131.107C219.346 130.984 219.632 130.926 219.92 130.936C220.208 130.946 220.491 131.024 220.752 131.164C221.013 131.305 221.247 131.505 221.439 131.753C221.63 132.001 221.776 132.292 221.868 132.607L223.972 139.88" fill="#E98862"/>
<path d="M246.469 230.526C243.825 230.525 241.23 229.7 238.959 228.136C236.688 226.573 234.825 224.33 233.567 221.644L204.384 157.222L228.625 142.006L253.767 193.56L296.821 179.088L303.713 212.435L250.499 229.871C249.188 230.305 247.832 230.525 246.469 230.526Z" fill="#367CFF"/>
<path d="M287.062 218.037C287.014 218.038 286.968 218.018 286.932 217.981C286.895 217.944 286.872 217.893 286.867 217.838L285.696 206.312C285.693 206.283 285.695 206.253 285.702 206.224C285.709 206.196 285.721 206.169 285.736 206.146C285.752 206.122 285.772 206.103 285.795 206.089C285.817 206.074 285.842 206.065 285.867 206.061C285.919 206.055 285.97 206.072 286.011 206.109C286.051 206.147 286.078 206.2 286.084 206.26L287.255 217.785C287.258 217.814 287.256 217.844 287.249 217.873C287.242 217.901 287.23 217.928 287.214 217.951C287.199 217.975 287.179 217.994 287.156 218.009C287.134 218.023 287.109 218.032 287.083 218.036C287.076 218.037 287.069 218.037 287.062 218.037Z" fill="#0C0C0C"/>
<path d="M105.981 70.0482H73.4754C71.0388 70.0482 69.0636 72.3291 69.0636 75.1428V229.087C69.0636 231.9 71.0388 234.181 73.4754 234.181H105.981C108.418 234.181 110.393 231.9 110.393 229.087V75.1428C110.393 72.3291 108.418 70.0482 105.981 70.0482Z" fill="#292A2E"/>
<path d="M68.3243 279.614C68.3899 279.614 68.4544 279.593 68.5102 279.553C68.5661 279.513 68.6111 279.456 68.6403 279.388L77.9056 257.444C77.939 257.349 77.9398 257.242 77.9079 257.146C77.8759 257.05 77.8136 256.972 77.7335 256.926C77.6533 256.881 77.5614 256.873 77.4761 256.903C77.3909 256.933 77.3187 257 77.2742 257.089L68.009 279.033C67.9831 279.094 67.9713 279.163 67.9745 279.231C67.9777 279.3 67.9959 279.366 68.0274 279.424C68.0589 279.483 68.1026 279.531 68.1545 279.564C68.2064 279.598 68.2648 279.615 68.3243 279.616V279.614Z" fill="#292A2E"/>
<path d="M52.6628 278.341C52.7404 278.341 52.8158 278.311 52.8773 278.257C52.9388 278.202 52.9829 278.125 53.0027 278.039L63.7243 230.773C63.7408 230.671 63.7235 230.567 63.6759 230.48C63.6282 230.393 63.5538 230.33 63.4676 230.304C63.3813 230.278 63.2898 230.291 63.2113 230.339C63.1329 230.388 63.0734 230.47 63.0448 230.567L52.3228 277.833C52.3094 277.893 52.3081 277.956 52.3188 278.017C52.3296 278.077 52.3523 278.134 52.3851 278.183C52.4179 278.232 52.46 278.272 52.5081 278.299C52.5562 278.327 52.6091 278.341 52.6628 278.341Z" fill="#292A2E"/>
<path d="M32.2116 280.433C32.2587 280.433 32.3053 280.422 32.3485 280.4C32.4341 280.358 32.5017 280.279 32.5366 280.179C32.5715 280.079 32.5708 279.968 32.5347 279.869L21.452 249.729C21.4114 249.638 21.3424 249.568 21.2589 249.533C21.1753 249.498 21.0834 249.5 21.0015 249.54C20.9197 249.58 20.854 249.655 20.8176 249.748C20.7812 249.842 20.7768 249.948 20.8054 250.045L31.8881 280.185C31.9151 280.259 31.9601 280.321 32.0176 280.365C32.0751 280.409 32.1426 280.433 32.2116 280.433Z" fill="#292A2E"/>
<path d="M52.2653 287.417C52.2942 287.417 52.323 287.413 52.351 287.405C52.4412 287.378 52.5188 287.312 52.5666 287.22C52.6145 287.127 52.6288 287.017 52.6064 286.913L39.7286 227.42C39.7016 227.322 39.643 227.239 39.5647 227.188C39.4864 227.137 39.3944 227.123 39.3074 227.148C39.2204 227.174 39.145 227.236 39.0965 227.323C39.0481 227.41 39.0303 227.516 39.0468 227.617L51.925 287.11C51.9441 287.197 51.9879 287.275 52.0496 287.331C52.1112 287.386 52.1871 287.417 52.2653 287.417Z" fill="#292A2E"/>
<path d="M47.6976 239.611C51.1917 231.129 48.9117 221.445 42.6052 217.981C36.2987 214.517 28.3538 218.584 24.8597 227.066C21.3657 235.548 23.6456 245.232 29.9522 248.697C36.2587 252.161 44.2036 248.093 47.6976 239.611Z" fill="#0CBC8B"/>
<path opacity="0.4" d="M47.6976 239.611C51.1917 231.129 48.9117 221.445 42.6052 217.981C36.2987 214.517 28.3538 218.584 24.8597 227.066C21.3657 235.548 23.6456 245.232 29.9522 248.697C36.2587 252.161 44.2036 248.093 47.6976 239.611Z" fill="white"/>
<path d="M26.0231 259.194C27.8455 253.968 26.2489 248.303 22.4569 246.539C18.6648 244.776 14.1134 247.582 12.2909 252.807C10.4684 258.033 12.0651 263.698 15.8571 265.462C19.6491 267.226 24.2006 264.419 26.0231 259.194Z" fill="#0CBC8B"/>
<path d="M70.7076 252.489C76.3404 250.516 79.2068 242.445 77.11 234.462C75.0132 226.479 68.7471 221.607 63.1144 223.579C57.4816 225.552 54.6151 233.623 56.712 241.606C58.8088 249.589 65.0749 254.461 70.7076 252.489Z" fill="#0CBC8B"/>
<path d="M80.395 269.478C83.5394 268.87 85.4876 264.234 84.7464 259.123C84.0051 254.012 80.8552 250.362 77.7108 250.971C74.5664 251.579 72.6183 256.215 73.3595 261.325C74.1007 266.436 77.2507 270.086 80.395 269.478Z" fill="#0CBC8B"/>
<path d="M21.8749 287.975H76.5787V272.233H21.8749V287.975Z" fill="#292A2E"/>
<path opacity="0.3" d="M21.8749 287.975H76.5787V272.233H21.8749V287.975Z" fill="white"/>
<path d="M47.8022 268.277C50.0255 261.902 48.0604 254.982 43.413 252.821C38.7657 250.66 33.1959 254.075 30.9726 260.45C28.7494 266.824 30.7144 273.744 35.3618 275.906C40.0091 278.067 45.5789 274.651 47.8022 268.277Z" fill="#0CBC8B"/>
<path d="M59.9439 274.326C64.5725 274.326 68.3247 269.993 68.3247 264.648C68.3247 259.303 64.5725 254.97 59.9439 254.97C55.3154 254.97 51.5632 259.303 51.5632 264.648C51.5632 269.993 55.3154 274.326 59.9439 274.326Z" fill="#0CBC8B"/>
<path opacity="0.68" d="M26.0231 259.194C27.8455 253.968 26.2489 248.303 22.4569 246.539C18.6648 244.776 14.1134 247.582 12.2909 252.807C10.4684 258.033 12.0651 263.698 15.8571 265.462C19.6491 267.226 24.2006 264.419 26.0231 259.194Z" fill="white"/>
<path opacity="0.68" d="M70.7076 252.489C76.3404 250.516 79.2068 242.445 77.11 234.462C75.0132 226.479 68.7471 221.607 63.1144 223.579C57.4816 225.552 54.6151 233.623 56.712 241.606C58.8088 249.589 65.0749 254.461 70.7076 252.489Z" fill="white"/>
<path opacity="0.68" d="M80.395 269.478C83.5394 268.87 85.4876 264.234 84.7464 259.123C84.0051 254.012 80.8552 250.362 77.7108 250.971C74.5664 251.579 72.6183 256.215 73.3595 261.325C74.1007 266.436 77.2507 270.086 80.395 269.478Z" fill="white"/>
<path opacity="0.68" d="M47.8022 268.277C50.0255 261.902 48.0604 254.982 43.413 252.821C38.7657 250.66 33.1959 254.075 30.9726 260.45C28.7494 266.824 30.7144 273.744 35.3618 275.906C40.0091 278.067 45.5789 274.651 47.8022 268.277Z" fill="white"/>
<path opacity="0.4" d="M59.9439 274.326C64.5725 274.326 68.3247 269.993 68.3247 264.648C68.3247 259.303 64.5725 254.97 59.9439 254.97C55.3154 254.97 51.5632 259.303 51.5632 264.648C51.5632 269.993 55.3154 274.326 59.9439 274.326Z" fill="white"/>
<path d="M33.0248 256.501C39.3859 258.553 42.7337 252.55 42.7337 252.55L42.7302 252.542C39.337 251.374 35.575 253.017 33.0248 256.501Z" fill="#292A2E"/>
<path d="M73.2047 258.959C76.3363 257.574 78.9312 254.933 80.5144 251.52C79.6564 250.991 78.6725 250.798 77.7116 250.972C75.0628 251.483 73.2646 254.854 73.2047 258.959Z" fill="#292A2E"/>
<path d="M58.4488 255.126C60.8882 257.664 63.9363 259.289 67.1914 259.787C66.3246 258.067 65.0206 256.698 63.4565 255.864C61.8925 255.03 60.1441 254.773 58.4488 255.126Z" fill="#292A2E"/>
<path d="M0.391308 288.743H399.262C399.366 288.743 399.465 288.696 399.539 288.611C399.612 288.526 399.653 288.412 399.653 288.292C399.653 288.172 399.612 288.057 399.539 287.973C399.465 287.888 399.366 287.841 399.262 287.841H0.391308C0.287559 287.841 0.188059 287.888 0.114698 287.973C0.0413361 288.057 0.00012207 288.172 0.00012207 288.292C0.00012207 288.412 0.0413361 288.526 0.114698 288.611C0.188059 288.696 0.287559 288.743 0.391308 288.743Z" fill="#292A2E"/>
<path d="M83.7577 106.094H76.7547C75.7877 106.094 75.0037 106.999 75.0037 108.116V116.203C75.0037 117.32 75.7877 118.225 76.7547 118.225H83.7577C84.7247 118.225 85.5086 117.32 85.5086 116.203V108.116C85.5086 106.999 84.7247 106.094 83.7577 106.094Z" fill="#292A2E"/>
<path d="M83.7577 118.451H76.7554C76.2394 118.45 75.7447 118.213 75.3797 117.792C75.0148 117.371 74.8095 116.799 74.8089 116.204V108.118C74.8094 107.522 75.0147 106.95 75.3796 106.529C75.7445 106.107 76.2394 105.87 76.7554 105.87H83.7577C84.2738 105.87 84.7686 106.107 85.1335 106.529C85.4985 106.95 85.7037 107.522 85.7042 108.118V116.204C85.7036 116.799 85.4983 117.371 85.1334 117.792C84.7685 118.213 84.2737 118.45 83.7577 118.451ZM76.7554 106.32C76.3431 106.321 75.9477 106.51 75.6561 106.847C75.3645 107.184 75.2005 107.64 75.2001 108.116V116.202C75.2005 116.678 75.3645 117.135 75.6561 117.472C75.9477 117.808 76.3431 117.997 76.7554 117.998H83.7577C84.17 117.997 84.5654 117.808 84.857 117.472C85.1486 117.135 85.3126 116.678 85.313 116.202V108.116C85.3126 107.64 85.1486 107.184 84.857 106.847C84.5654 106.51 84.1701 106.321 83.7577 106.32H76.7554Z" fill="white"/>
<path d="M102.917 111.939C102.917 108.59 100.565 105.874 97.6646 105.874C94.7638 105.874 92.4122 108.59 92.4122 111.939C92.4122 115.289 94.7638 118.005 97.6646 118.005C100.565 118.005 102.917 115.289 102.917 111.939Z" fill="#292A2E"/>
<path d="M97.6646 118.231C96.5871 118.231 95.5338 117.862 94.6378 117.17C93.7419 116.479 93.0436 115.496 92.6313 114.347C92.2189 113.197 92.111 111.932 92.3212 110.712C92.5315 109.491 93.0503 108.37 93.8123 107.491C94.5742 106.611 95.5449 106.012 96.6017 105.769C97.6586 105.526 98.754 105.651 99.7495 106.127C100.745 106.603 101.596 107.409 102.194 108.444C102.793 109.479 103.113 110.695 103.113 111.939C103.111 113.607 102.536 115.206 101.515 116.386C100.494 117.565 99.109 118.229 97.6646 118.231ZM97.6646 106.1C96.6644 106.1 95.6868 106.442 94.8552 107.084C94.0236 107.725 93.3754 108.638 92.9927 109.705C92.6099 110.772 92.5098 111.946 92.7049 113.079C92.9 114.211 93.3816 115.252 94.0889 116.068C94.7961 116.885 95.6971 117.441 96.6781 117.667C97.659 117.892 98.6758 117.776 99.5998 117.334C100.524 116.892 101.314 116.144 101.869 115.184C102.425 114.223 102.721 113.094 102.721 111.939C102.72 110.391 102.187 108.907 101.239 107.812C100.291 106.717 99.0053 106.101 97.6646 106.1Z" fill="white"/>
<path d="M76.3294 78.252L76.1722 94.5397L80.4791 89.9719L86.0218 90.0862L76.3294 78.252Z" fill="#292A2E"/>
<path d="M76.1722 94.7678C76.1452 94.7676 76.1185 94.7609 76.0939 94.7479C76.0588 94.7302 76.029 94.701 76.0081 94.6639C75.9873 94.6268 75.9763 94.5835 75.9766 94.5392L76.133 78.2518C76.1334 78.2068 76.1454 78.1629 76.1675 78.1258C76.1896 78.0888 76.2208 78.0602 76.2571 78.0437C76.2934 78.0273 76.3331 78.0237 76.3711 78.0335C76.4092 78.0433 76.4438 78.066 76.4706 78.0986L86.163 89.9339C86.1895 89.9661 86.2072 90.0067 86.2138 90.0505C86.2204 90.0943 86.2157 90.1394 86.2002 90.1801C86.186 90.222 86.1607 90.2577 86.1279 90.282C86.0951 90.3064 86.0565 90.3181 86.0175 90.3156L80.5531 90.2031L76.3036 94.7095C76.2676 94.7471 76.2207 94.7679 76.1722 94.7678ZM76.5195 78.8151L76.3725 94.0225L80.3469 89.8079C80.3844 89.7698 80.4327 89.7488 80.4826 89.7487L85.5598 89.853L76.5195 78.8151Z" fill="white"/>
<path d="M93.8592 78.252L93.702 94.5397L98.0093 89.9719L103.552 90.0862L93.8592 78.252Z" fill="white"/>
<path d="M93.7019 94.7678C93.6749 94.7677 93.6482 94.761 93.6237 94.7479C93.5886 94.7303 93.5588 94.701 93.5379 94.6639C93.517 94.6268 93.5061 94.5835 93.5064 94.5392L93.6628 78.2518C93.6632 78.2068 93.6752 78.1629 93.6973 78.1258C93.7194 78.0888 93.7506 78.0602 93.7869 78.0437C93.8232 78.0273 93.8629 78.0237 93.9009 78.0335C93.939 78.0433 93.9736 78.066 94.0004 78.0986L103.693 89.9339C103.72 89.9662 103.737 90.0068 103.744 90.0506C103.75 90.0944 103.745 90.1394 103.73 90.1801C103.716 90.2222 103.691 90.2581 103.658 90.2825C103.625 90.3069 103.587 90.3185 103.548 90.3156L98.0828 90.2031L93.8338 94.7096C93.7975 94.7471 93.7506 94.7678 93.7019 94.7678ZM94.0493 78.8151L93.9026 94.0225L97.8767 89.8079C97.9145 89.7703 97.9625 89.7494 98.0124 89.7487L103.09 89.853L94.0493 78.8151Z" fill="#292A2E"/>
<path d="M76.5449 129.737L75.7543 141.597L78.229 143.209L83.6418 140.732L83.9066 137.4L76.5449 129.737Z" fill="#292A2E"/>
<path d="M78.229 143.434C78.1953 143.434 78.1621 143.424 78.1328 143.405L75.6581 141.794C75.6257 141.773 75.5992 141.741 75.5816 141.703C75.5641 141.666 75.5563 141.623 75.5592 141.58L76.3501 129.719C76.353 129.677 76.3659 129.637 76.3876 129.603C76.4092 129.569 76.4386 129.543 76.4725 129.527C76.5065 129.511 76.5435 129.507 76.5795 129.514C76.6154 129.522 76.6489 129.541 76.676 129.569L84.0377 137.232C84.0603 137.256 84.0779 137.285 84.089 137.318C84.1 137.35 84.1043 137.386 84.1015 137.421L83.837 140.752C83.8337 140.794 83.8205 140.833 83.7988 140.867C83.7771 140.9 83.7478 140.926 83.7142 140.941L78.301 143.418C78.278 143.429 78.2536 143.434 78.229 143.434ZM75.9601 141.471L78.2447 142.958L83.4595 140.572L83.704 137.492L76.7116 130.212L75.9601 141.471Z" fill="white"/>
<path d="M78.9085 136.861C78.8693 136.861 78.831 136.847 78.7985 136.822C78.7661 136.796 78.741 136.76 78.7266 136.718L76.3635 129.822C76.3528 129.794 76.3471 129.764 76.3468 129.734C76.3464 129.703 76.3514 129.673 76.3613 129.645C76.3713 129.617 76.3861 129.591 76.4048 129.57C76.4236 129.549 76.4458 129.532 76.4703 129.521C76.4948 129.509 76.521 129.504 76.5473 129.505C76.5736 129.505 76.5995 129.512 76.6235 129.525C76.6474 129.538 76.6689 129.556 76.6867 129.578C76.7045 129.601 76.7181 129.627 76.7269 129.656L79.0904 136.553C79.1021 136.587 79.1064 136.624 79.1029 136.661C79.0994 136.698 79.0882 136.733 79.0703 136.763C79.0523 136.794 79.0282 136.818 79 136.836C78.9718 136.853 78.9404 136.862 78.9085 136.862V136.861Z" fill="white"/>
<path d="M79.2696 139.195C79.9959 139.195 80.5847 138.515 80.5847 137.677C80.5847 136.838 79.9959 136.158 79.2696 136.158C78.5432 136.158 77.9544 136.838 77.9544 137.677C77.9544 138.515 78.5432 139.195 79.2696 139.195Z" fill="#292A2E"/>
<path d="M79.2696 139.421C78.9708 139.421 78.6786 139.319 78.4301 139.127C78.1816 138.936 77.9879 138.663 77.8735 138.345C77.7591 138.026 77.7292 137.675 77.7874 137.337C77.8457 136.998 77.9895 136.687 78.2008 136.443C78.412 136.199 78.6812 136.033 78.9743 135.966C79.2674 135.898 79.5712 135.933 79.8472 136.065C80.1233 136.197 80.3593 136.421 80.5253 136.708C80.6913 136.994 80.7799 137.332 80.7799 137.677C80.7795 138.139 80.6203 138.583 80.3371 138.91C80.054 139.237 79.6701 139.421 79.2696 139.421ZM79.2696 136.384C79.0481 136.384 78.8316 136.46 78.6474 136.602C78.4633 136.744 78.3197 136.946 78.2349 137.182C78.1501 137.419 78.1279 137.678 78.1711 137.929C78.2143 138.18 78.3209 138.411 78.4775 138.591C78.6341 138.772 78.8336 138.895 79.0509 138.945C79.2681 138.995 79.4932 138.969 79.6978 138.872C79.9024 138.774 80.0772 138.608 80.2002 138.395C80.3232 138.183 80.3888 137.932 80.3888 137.677C80.3883 137.334 80.2703 137.006 80.0605 136.763C79.8507 136.521 79.5663 136.385 79.2696 136.384Z" fill="white"/>
<path d="M76.9487 143.626L84.6942 140.082C84.8297 140.02 84.9809 140.021 85.1156 140.086C85.2502 140.151 85.3577 140.274 85.4151 140.429L85.978 141.945C86.0076 142.025 86.023 142.111 86.0232 142.198C86.0234 142.285 86.0085 142.371 85.9793 142.451C85.9501 142.531 85.9072 142.603 85.8532 142.664C85.7993 142.725 85.7353 142.772 85.6651 142.803L77.893 146.294C77.7573 146.355 77.6063 146.352 77.4721 146.287C77.3379 146.221 77.2311 146.098 77.1744 145.943L76.6385 144.48C76.6093 144.401 76.5942 144.315 76.5941 144.229C76.5939 144.143 76.6087 144.057 76.6376 143.978C76.6666 143.898 76.709 143.826 76.7624 143.766C76.8158 143.705 76.8791 143.658 76.9487 143.626Z" fill="white"/>
<path d="M95.1435 131.515L94.3975 142.702L96.7317 144.221L101.837 141.885L102.087 138.743L95.1435 131.515Z" fill="#292A2E"/>
<path d="M96.7317 144.447C96.6979 144.447 96.6648 144.437 96.6354 144.418L94.3016 142.899C94.2692 142.878 94.2427 142.846 94.2251 142.808C94.2076 142.77 94.1998 142.727 94.2027 142.685L94.9483 131.497C94.951 131.455 94.964 131.415 94.9856 131.381C95.0073 131.347 95.0368 131.32 95.0708 131.305C95.1048 131.289 95.1419 131.285 95.1779 131.292C95.2139 131.3 95.2474 131.319 95.2745 131.347L102.218 138.575C102.241 138.598 102.258 138.628 102.269 138.66C102.28 138.693 102.285 138.728 102.282 138.763L102.032 141.905C102.029 141.947 102.016 141.987 101.994 142.02C101.972 142.053 101.943 142.079 101.909 142.095L96.8037 144.431C96.7807 144.442 96.7563 144.447 96.7317 144.447ZM94.6021 142.576L96.7465 143.972L101.654 141.726L101.883 138.835L95.3078 131.99L94.6021 142.576Z" fill="white"/>
<path d="M97.3725 138.246C97.3332 138.246 97.2949 138.232 97.2625 138.207C97.23 138.182 97.205 138.145 97.1906 138.103L94.9608 131.599C94.9417 131.543 94.9426 131.481 94.9632 131.426C94.9838 131.371 95.0225 131.328 95.0707 131.306C95.119 131.284 95.1728 131.285 95.2204 131.308C95.268 131.332 95.3055 131.377 95.3246 131.433L97.5543 137.937C97.5638 137.965 97.5685 137.994 97.5681 138.024C97.5677 138.053 97.5622 138.083 97.552 138.11C97.5418 138.137 97.527 138.162 97.5086 138.183C97.4901 138.203 97.4683 138.219 97.4444 138.23C97.4215 138.241 97.3971 138.246 97.3725 138.246Z" fill="white"/>
<path d="M97.7132 140.436C98.3983 140.436 98.9537 139.795 98.9537 139.004C98.9537 138.213 98.3983 137.572 97.7132 137.572C97.0281 137.572 96.4728 138.213 96.4728 139.004C96.4728 139.795 97.0281 140.436 97.7132 140.436Z" fill="#292A2E"/>
<path d="M97.7132 140.663C97.4292 140.663 97.1515 140.566 96.9154 140.384C96.6792 140.201 96.4952 139.942 96.3865 139.639C96.2778 139.336 96.2493 139.003 96.3048 138.681C96.3602 138.36 96.4969 138.064 96.6978 137.832C96.8986 137.6 97.1545 137.442 97.4331 137.378C97.7116 137.314 98.0004 137.347 98.2628 137.473C98.5252 137.598 98.7495 137.811 98.9072 138.084C99.065 138.356 99.1493 138.677 99.1493 139.005C99.1488 139.444 98.9974 139.866 98.7282 140.177C98.459 140.488 98.094 140.663 97.7132 140.663ZM97.7132 137.798C97.5066 137.798 97.3045 137.869 97.1327 138.002C96.9609 138.134 96.827 138.323 96.7479 138.543C96.6688 138.764 96.6481 139.006 96.6884 139.24C96.7287 139.474 96.8283 139.689 96.9744 139.858C97.1205 140.027 97.3067 140.142 97.5094 140.188C97.7121 140.235 97.9221 140.211 98.1131 140.12C98.304 140.028 98.4672 139.874 98.582 139.675C98.6968 139.477 98.7581 139.243 98.7581 139.005C98.758 138.685 98.6479 138.378 98.452 138.151C98.2561 137.925 97.9904 137.798 97.7132 137.797V137.798Z" fill="white"/>
<path d="M95.5241 144.616L102.829 141.273C102.957 141.214 103.1 141.216 103.227 141.277C103.354 141.338 103.455 141.454 103.509 141.6L104.04 143.031C104.068 143.106 104.083 143.187 104.083 143.268C104.083 143.35 104.069 143.431 104.042 143.507C104.014 143.582 103.974 143.65 103.923 143.707C103.872 143.764 103.812 143.809 103.746 143.839L96.4156 147.131C96.2875 147.188 96.1451 147.186 96.0185 147.124C95.8919 147.063 95.7912 146.946 95.7376 146.8L95.2322 145.421C95.2048 145.346 95.1905 145.265 95.1904 145.184C95.1902 145.103 95.2041 145.022 95.2313 144.947C95.2585 144.872 95.2984 144.804 95.3487 144.747C95.399 144.69 95.4586 144.646 95.5241 144.616Z" fill="white"/>
<path d="M100.193 132.604C100.141 132.604 100.091 132.58 100.054 132.537C100.018 132.495 99.9969 132.438 99.9969 132.378V128.019C99.9969 127.959 100.018 127.902 100.054 127.86C100.091 127.817 100.141 127.793 100.193 127.793C100.244 127.793 100.294 127.817 100.331 127.86C100.368 127.902 100.388 127.959 100.388 128.019V132.378C100.388 132.438 100.368 132.495 100.331 132.537C100.294 132.58 100.244 132.604 100.193 132.604Z" fill="white"/>
<path d="M102.08 130.425H98.3051C98.2532 130.425 98.2035 130.401 98.1668 130.359C98.1301 130.316 98.1095 130.259 98.1095 130.199C98.1095 130.139 98.1301 130.081 98.1668 130.039C98.2035 129.996 98.2532 129.973 98.3051 129.973H102.079C102.131 129.973 102.181 129.996 102.218 130.039C102.254 130.081 102.275 130.139 102.275 130.199C102.275 130.259 102.254 130.316 102.218 130.359C102.181 130.401 102.131 130.425 102.079 130.425H102.08Z" fill="white"/>
<path d="M76.6873 170.719C76.4299 170.719 76.1769 170.641 75.9539 170.493C75.6146 170.267 75.3668 169.895 75.265 169.459C75.1632 169.023 75.2156 168.557 75.4109 168.165L79.3716 160.22C79.3975 160.168 79.44 160.13 79.4901 160.114C79.5401 160.099 79.5935 160.107 79.6384 160.136L81.8576 161.611C81.9021 161.641 81.9348 161.69 81.9488 161.747C81.9622 161.805 81.9551 161.866 81.9292 161.918L77.9692 169.863C77.8398 170.123 77.653 170.34 77.4279 170.49C77.2028 170.64 76.9473 170.719 76.6873 170.719ZM76.1491 170.1C76.3984 170.265 76.6943 170.31 76.9719 170.223C77.2495 170.137 77.486 169.927 77.6297 169.639L81.4923 161.89L79.6126 160.641L75.7501 168.39C75.6066 168.678 75.568 169.02 75.6429 169.341C75.7177 169.661 75.8998 169.935 76.1491 170.101V170.1Z" fill="white"/>
<path d="M83.0448 160.48L79.8897 158.383C79.4182 158.07 78.816 158.257 78.5447 158.802L78.5445 158.802C78.2731 159.347 78.4353 160.042 78.9068 160.355L82.0619 162.452C82.5334 162.765 83.1356 162.578 83.407 162.034L83.4072 162.033C83.6785 161.489 83.5163 160.794 83.0448 160.48Z" fill="white"/>
<path d="M82.7664 156.825C83.0157 156.991 83.1978 157.265 83.2727 157.586C83.3476 157.907 83.3091 158.249 83.1657 158.537L81.9183 161.043L80.038 159.792L81.2854 157.286C81.3564 157.143 81.451 157.018 81.5639 156.917C81.6768 156.817 81.8057 156.743 81.9432 156.701C82.0807 156.658 82.2242 156.647 82.3655 156.668C82.5067 156.69 82.6429 156.743 82.7664 156.825Z" fill="white"/>
<path d="M98.1847 169.869C97.4427 169.872 96.7078 169.704 96.0221 169.377C95.3364 169.05 94.7136 168.569 94.1895 167.963C94.1538 167.921 94.134 167.864 94.1344 167.804C94.1347 167.745 94.1552 167.688 94.1914 167.647C94.2277 167.605 94.2767 167.581 94.328 167.58C94.3793 167.58 94.4287 167.602 94.4656 167.643C95.2041 168.493 96.1441 169.071 97.1669 169.303C98.1897 169.536 99.2492 169.413 100.212 168.951C101.174 168.488 101.996 167.706 102.573 166.704C103.151 165.702 103.458 164.524 103.456 163.321C103.454 162.117 103.143 160.941 102.562 159.941C101.982 158.942 101.157 158.163 100.193 157.705C99.2293 157.246 98.1694 157.128 97.1474 157.365C96.1254 157.603 95.1872 158.184 94.4516 159.037C94.4147 159.078 94.3653 159.101 94.314 159.101C94.2628 159.1 94.2137 159.077 94.1774 159.035C94.141 158.993 94.1204 158.937 94.1199 158.877C94.1194 158.818 94.139 158.761 94.1746 158.718C94.8317 157.957 95.6413 157.394 96.5317 157.08C97.422 156.766 98.3658 156.71 99.2792 156.918C100.193 157.126 101.048 157.591 101.768 158.271C102.489 158.951 103.054 159.827 103.411 160.819C103.769 161.811 103.91 162.891 103.82 163.961C103.731 165.031 103.414 166.059 102.898 166.954C102.383 167.849 101.684 168.583 100.863 169.092C100.043 169.6 99.127 169.867 98.196 169.869H98.1847Z" fill="white"/>
<path d="M96.4587 159.681C96.447 159.681 96.4354 159.679 96.4239 159.677L94.067 159.189C94.0413 159.183 94.0169 159.172 93.995 159.156C93.9732 159.139 93.9545 159.118 93.9399 159.093C93.9253 159.068 93.9152 159.04 93.9101 159.01C93.9051 158.981 93.9052 158.95 93.9105 158.921L94.3654 156.362C94.3706 156.333 94.3806 156.306 94.395 156.281C94.4094 156.256 94.4278 156.235 94.4492 156.219C94.4707 156.203 94.4947 156.191 94.5199 156.186C94.5451 156.18 94.5711 156.18 94.5962 156.186C94.6214 156.192 94.6453 156.204 94.6666 156.22C94.6879 156.237 94.7061 156.258 94.7203 156.283C94.7345 156.308 94.7443 156.335 94.7492 156.364C94.7541 156.394 94.7539 156.424 94.7488 156.453L94.3341 158.785L96.4935 159.232C96.5415 159.242 96.5846 159.273 96.6142 159.317C96.6438 159.362 96.6578 159.418 96.6535 159.474C96.6492 159.531 96.6268 159.583 96.5908 159.621C96.5549 159.659 96.5079 159.68 96.4591 159.68L96.4587 159.681Z" fill="white"/>
<path d="M101.784 192.316H92.3661C92.3142 192.316 92.2644 192.292 92.2278 192.25C92.1911 192.207 92.1705 192.15 92.1705 192.09V181.215C92.1705 181.155 92.1911 181.098 92.2278 181.055C92.2644 181.013 92.3142 180.989 92.3661 180.989H101.784C101.836 180.989 101.885 181.013 101.922 181.055C101.959 181.098 101.979 181.155 101.979 181.215V192.09C101.979 192.15 101.959 192.207 101.922 192.25C101.885 192.292 101.836 192.316 101.784 192.316ZM92.5617 191.864H101.588V181.441H92.5617V191.864Z" fill="white"/>
<path d="M102.421 185.127H97.3486C96.1671 185.127 95.2092 186.233 95.2092 187.597V193.455C95.2092 194.819 96.1671 195.925 97.3486 195.925H102.421C103.602 195.925 104.56 194.819 104.56 193.455V187.597C104.56 186.233 103.602 185.127 102.421 185.127Z" fill="#292A2E"/>
<path d="M102.421 196.15H97.3485C96.7295 196.15 96.136 195.865 95.6983 195.36C95.2605 194.855 95.0143 194.169 95.0135 193.454V187.597C95.0143 186.882 95.2605 186.197 95.6983 185.692C96.136 185.186 96.7295 184.902 97.3485 184.901H102.421C103.04 184.902 103.634 185.186 104.071 185.692C104.509 186.197 104.755 186.882 104.756 187.597V193.454C104.755 194.169 104.509 194.855 104.071 195.36C103.633 195.865 103.04 196.15 102.421 196.15ZM97.3485 185.354C96.8332 185.355 96.3391 185.591 95.9746 186.012C95.6102 186.433 95.4053 187.003 95.4047 187.599V193.456C95.4054 194.051 95.6104 194.621 95.9748 195.042C96.3392 195.463 96.8332 195.699 97.3485 195.7H102.421C102.936 195.699 103.43 195.463 103.795 195.042C104.159 194.621 104.364 194.051 104.364 193.456V187.597C104.364 187.002 104.159 186.432 103.795 186.011C103.43 185.59 102.936 185.353 102.421 185.353L97.3485 185.354Z" fill="white"/>
<path d="M82.674 187.153C82.674 184.591 80.8755 182.515 78.657 182.515C76.4384 182.515 74.6399 184.591 74.6399 187.153C74.6399 189.715 76.4384 191.792 78.657 191.792C80.8755 191.792 82.674 189.715 82.674 187.153Z" fill="#292A2E"/>
<path d="M78.657 192.018C77.8238 192.018 77.0093 191.733 76.3166 191.198C75.6238 190.664 75.0839 189.904 74.765 189.015C74.4462 188.126 74.3627 187.148 74.5253 186.204C74.6878 185.261 75.089 184.394 75.6782 183.713C76.2674 183.033 77.018 182.57 77.8352 182.382C78.6523 182.194 79.4994 182.291 80.2691 182.659C81.0389 183.027 81.6968 183.651 82.1597 184.451C82.6226 185.251 82.8697 186.191 82.8697 187.153C82.8683 188.443 82.4241 189.68 81.6343 190.592C80.8446 191.503 79.7739 192.017 78.657 192.018ZM78.657 182.74C77.9012 182.74 77.1623 182.999 76.5339 183.484C75.9055 183.969 75.4157 184.658 75.1264 185.465C74.8372 186.271 74.7615 187.158 74.909 188.014C75.0564 188.87 75.4204 189.657 75.9548 190.274C76.4893 190.891 77.1702 191.311 77.9115 191.482C78.6528 191.652 79.4211 191.564 80.1194 191.23C80.8177 190.896 81.4146 190.331 81.8345 189.605C82.2544 188.879 82.4785 188.026 82.4785 187.153C82.4774 185.983 82.0744 184.862 81.358 184.034C80.6415 183.207 79.6702 182.742 78.657 182.74Z" fill="white"/>
<path d="M80.7524 191.11L80.4152 191.338L83.101 196.616L83.4383 196.387L80.7524 191.11Z" fill="white"/>
<path d="M104.23 221.941H93.7344V209.822H104.23V221.941ZM94.1256 221.489H103.838V210.274H94.1256V221.489Z" fill="white"/>
<path d="M93.93 210.274C93.8782 210.274 93.8284 210.25 93.7917 210.208C93.755 210.165 93.7344 210.108 93.7344 210.048V206.513C93.7344 206.453 93.755 206.396 93.7917 206.353C93.8284 206.311 93.8782 206.287 93.93 206.287C93.9819 206.287 94.0316 206.311 94.0683 206.353C94.105 206.396 94.1256 206.453 94.1256 206.513V210.048C94.1256 210.108 94.105 210.165 94.0683 210.208C94.0316 210.25 93.9819 210.274 93.93 210.274Z" fill="white"/>
<path d="M93.8968 210.273H90.8354C90.7835 210.273 90.7337 210.249 90.6971 210.207C90.6604 210.165 90.6398 210.107 90.6398 210.048C90.6398 209.988 90.6604 209.931 90.6971 209.888C90.7337 209.846 90.7835 209.822 90.8354 209.822H93.8968C93.9487 209.822 93.9984 209.846 94.0351 209.888C94.0718 209.931 94.0924 209.988 94.0924 210.048C94.0924 210.107 94.0718 210.165 94.0351 210.207C93.9984 210.249 93.9487 210.273 93.8968 210.273Z" fill="white"/>
<path d="M78.3815 222.745H79.2085L81.8459 208.433H85.6987L85.827 207.688H77.3062L77.1653 208.433H80.999L78.3815 222.745Z" fill="white"/>
<path d="M262.731 281.029L246.569 223.66C246.285 222.652 245.732 221.773 244.989 221.15C244.246 220.527 243.352 220.192 242.434 220.192H176.589C175.903 220.192 175.226 220.379 174.615 220.739C174.003 221.099 173.474 221.621 173.071 222.262C172.667 222.904 172.401 223.646 172.294 224.429C172.187 225.212 172.242 226.013 172.454 226.767L188.616 284.136C188.9 285.144 189.453 286.022 190.196 286.645C190.939 287.268 191.833 287.604 192.751 287.604H258.596C259.282 287.604 259.959 287.416 260.571 287.056C261.182 286.696 261.711 286.174 262.114 285.533C262.518 284.892 262.784 284.149 262.891 283.366C262.998 282.584 262.944 281.783 262.731 281.029Z" fill="#292A2E"/>
<path d="M293.624 282.952H249.548C248.449 282.952 247.559 283.98 247.559 285.248V285.307C247.559 286.576 248.449 287.604 249.548 287.604H293.624C294.722 287.604 295.612 286.576 295.612 285.307V285.248C295.612 283.98 294.722 282.952 293.624 282.952Z" fill="#292A2E"/>
<path d="M217.592 264.671C221.407 264.671 224.498 261.1 224.498 256.696C224.498 252.292 221.407 248.721 217.592 248.721C213.778 248.721 210.686 252.292 210.686 256.696C210.686 261.1 213.778 264.671 217.592 264.671Z" fill="white"/>
</svg>
