<svg width="396" height="296" viewBox="0 0 396 296" fill="none" xmlns="http://www.w3.org/2000/svg">
<path opacity="0.1" d="M353.413 292.956C390.29 292.956 401.525 257.161 390.901 213.324C384.892 188.533 370.998 156.114 348.299 141.443C286.182 101.295 294.554 99.3675 279.177 56.6343C254.075 -13.1249 157.55 -15.8168 118.11 34.1709C87.4225 73.0654 74.2901 127.896 32.4802 168.295C-17.9868 217.059 -4.22188 293.662 44.2548 293.662L353.413 292.956Z" fill="#367CFF"/>
<path d="M394.708 250.68H5.74463L28.1301 193.97H372.323L394.708 250.68Z" fill="#292A2E"/>
<path d="M394.708 250.68H5.74463L28.1301 193.97H372.323L394.708 250.68Z" fill="white"/>
<path d="M394.708 251.18H5.74677C5.67522 251.18 5.60481 251.159 5.54208 251.118C5.47935 251.078 5.42634 251.019 5.38797 250.948C5.3496 250.877 5.32712 250.796 5.32262 250.712C5.31812 250.628 5.33174 250.544 5.36222 250.467L27.7459 193.758C27.7802 193.673 27.8345 193.6 27.9025 193.549C27.9706 193.498 28.0495 193.471 28.1301 193.471H372.322C372.403 193.471 372.482 193.498 372.55 193.549C372.618 193.6 372.673 193.672 372.707 193.758L395.093 250.467C395.124 250.543 395.137 250.627 395.133 250.711C395.129 250.795 395.107 250.876 395.068 250.947C395.03 251.018 394.978 251.076 394.915 251.117C394.853 251.158 394.783 251.179 394.711 251.18H394.708ZM6.41273 250.181H394.04L372.053 194.47H28.4L6.41273 250.181Z" fill="#292A2E"/>
<path d="M227.125 174.985H189.457V208.498H227.125V174.985Z" fill="#292A2E"/>
<path opacity="0.64" d="M227.125 174.985H189.457V192.889H227.125V174.985Z" fill="#0C0C0C"/>
<path d="M288.294 42.0212H128.288C125.771 42.0212 123.731 44.4223 123.731 47.3841V178.803C123.731 181.765 125.771 184.166 128.288 184.166H288.294C290.811 184.166 292.851 181.765 292.851 178.803V47.3841C292.851 44.4223 290.811 42.0212 288.294 42.0212Z" fill="#292A2E"/>
<path d="M286.045 48.1132H130.537C129.504 48.1132 128.667 49.0987 128.667 50.3145V159.308C128.667 160.524 129.504 161.51 130.537 161.51H286.045C287.078 161.51 287.915 160.524 287.915 159.308V50.3145C287.915 49.0987 287.078 48.1132 286.045 48.1132Z" fill="white"/>
<path d="M234.962 205.744H181.62C180.255 205.744 179.148 207.047 179.148 208.653C179.148 210.26 180.255 211.562 181.62 211.562H234.962C236.327 211.562 237.434 210.26 237.434 208.653C237.434 207.047 236.327 205.744 234.962 205.744Z" fill="#292A2E"/>
<path d="M181.909 66.2263H174.827C174.784 66.2281 174.742 66.2199 174.703 66.2022C174.663 66.1844 174.627 66.1574 174.597 66.1229C174.566 66.0883 174.542 66.0469 174.526 66.0011C174.509 65.9553 174.501 65.9061 174.501 65.8563C174.501 65.8066 174.509 65.7573 174.526 65.7115C174.542 65.6657 174.566 65.6243 174.597 65.5898C174.627 65.5552 174.663 65.5283 174.703 65.5105C174.742 65.4927 174.784 65.4845 174.827 65.4863H181.909C181.99 65.4899 182.067 65.5304 182.124 65.5994C182.18 65.6684 182.212 65.7605 182.212 65.8563C182.212 65.9522 182.18 66.0443 182.124 66.1133C182.067 66.1823 181.99 66.2228 181.909 66.2263Z" fill="#292A2E"/>
<path d="M169.719 66.2263H167.04C166.998 66.2281 166.955 66.2199 166.916 66.2022C166.876 66.1844 166.84 66.1574 166.81 66.1229C166.78 66.0883 166.755 66.0469 166.739 66.0011C166.722 65.9553 166.714 65.9061 166.714 65.8563C166.714 65.8066 166.722 65.7573 166.739 65.7115C166.755 65.6657 166.78 65.6243 166.81 65.5898C166.84 65.5552 166.876 65.5283 166.916 65.5105C166.955 65.4927 166.998 65.4845 167.04 65.4863H169.719C169.762 65.4845 169.804 65.4927 169.843 65.5105C169.883 65.5283 169.919 65.5552 169.949 65.5898C169.98 65.6243 170.004 65.6657 170.02 65.7115C170.037 65.7573 170.045 65.8066 170.045 65.8563C170.045 65.9061 170.037 65.9553 170.02 66.0011C170.004 66.0469 169.98 66.0883 169.949 66.1229C169.919 66.1574 169.883 66.1844 169.843 66.2022C169.804 66.2199 169.762 66.2281 169.719 66.2263Z" fill="#367CFF"/>
<path d="M169.718 72.9021H167.039C166.956 72.9021 166.876 72.8631 166.817 72.7937C166.758 72.7243 166.724 72.6302 166.724 72.532C166.724 72.4339 166.758 72.3398 166.817 72.2704C166.876 72.201 166.956 72.162 167.039 72.162H169.718C169.802 72.162 169.882 72.201 169.941 72.2704C170 72.3398 170.033 72.4339 170.033 72.532C170.033 72.6302 170 72.7243 169.941 72.7937C169.882 72.8631 169.802 72.9021 169.718 72.9021Z" fill="#367CFF"/>
<path d="M169.718 79.5782H167.039C166.956 79.5782 166.876 79.5393 166.817 79.4698C166.758 79.4004 166.724 79.3062 166.724 79.2081C166.724 79.1099 166.758 79.0157 166.817 78.9463C166.876 78.8769 166.956 78.8379 167.039 78.8379H169.718C169.802 78.8379 169.882 78.8769 169.941 78.9463C170 79.0157 170.033 79.1099 170.033 79.2081C170.033 79.3062 170 79.4004 169.941 79.4698C169.882 79.5393 169.802 79.5782 169.718 79.5782Z" fill="#367CFF"/>
<path d="M169.718 86.2543H167.039C166.956 86.2543 166.876 86.2153 166.817 86.1458C166.758 86.0764 166.724 85.9823 166.724 85.8841C166.724 85.7859 166.758 85.6918 166.817 85.6223C166.876 85.5529 166.956 85.5139 167.039 85.5139H169.718C169.802 85.5139 169.882 85.5529 169.941 85.6223C170 85.6918 170.033 85.7859 170.033 85.8841C170.033 85.9823 170 86.0764 169.941 86.1458C169.882 86.2153 169.802 86.2543 169.718 86.2543Z" fill="#367CFF"/>
<path d="M169.719 92.9299H167.04C166.998 92.9318 166.955 92.9235 166.916 92.9058C166.876 92.888 166.84 92.861 166.81 92.8265C166.78 92.792 166.755 92.7506 166.739 92.7048C166.722 92.659 166.714 92.6098 166.714 92.56C166.714 92.5102 166.722 92.461 166.739 92.4152C166.755 92.3694 166.78 92.328 166.81 92.2935C166.84 92.2589 166.876 92.232 166.916 92.2142C166.955 92.1965 166.998 92.1882 167.04 92.1901H169.719C169.762 92.1882 169.804 92.1965 169.843 92.2142C169.883 92.232 169.919 92.2589 169.949 92.2935C169.98 92.328 170.004 92.3694 170.02 92.4152C170.037 92.461 170.045 92.5102 170.045 92.56C170.045 92.6098 170.037 92.659 170.02 92.7048C170.004 92.7506 169.98 92.792 169.949 92.8265C169.919 92.861 169.883 92.888 169.843 92.9058C169.804 92.9235 169.762 92.9318 169.719 92.9299Z" fill="#367CFF"/>
<path d="M169.718 99.6041H167.039C166.956 99.6041 166.876 99.5651 166.817 99.4957C166.758 99.4263 166.724 99.3321 166.724 99.2339C166.724 99.1357 166.758 99.0415 166.817 98.9721C166.876 98.9027 166.956 98.8636 167.039 98.8636H169.718C169.802 98.8636 169.882 98.9027 169.941 98.9721C170 99.0415 170.033 99.1357 170.033 99.2339C170.033 99.3321 170 99.4263 169.941 99.4957C169.882 99.5651 169.802 99.6041 169.718 99.6041Z" fill="#367CFF"/>
<path d="M169.718 106.282H167.039C166.956 106.282 166.876 106.243 166.817 106.174C166.758 106.104 166.724 106.01 166.724 105.912C166.724 105.814 166.758 105.719 166.817 105.65C166.876 105.581 166.956 105.542 167.039 105.542H169.718C169.802 105.542 169.882 105.581 169.941 105.65C170 105.719 170.033 105.814 170.033 105.912C170.033 106.01 170 106.104 169.941 106.174C169.882 106.243 169.802 106.282 169.718 106.282Z" fill="#367CFF"/>
<path d="M169.719 112.958H167.04C166.998 112.959 166.955 112.951 166.916 112.933C166.876 112.916 166.84 112.889 166.81 112.854C166.78 112.82 166.755 112.778 166.739 112.733C166.722 112.687 166.714 112.638 166.714 112.588C166.714 112.538 166.722 112.489 166.739 112.443C166.755 112.397 166.78 112.356 166.81 112.321C166.84 112.287 166.876 112.26 166.916 112.242C166.955 112.224 166.998 112.216 167.04 112.218H169.719C169.762 112.216 169.804 112.224 169.843 112.242C169.883 112.26 169.919 112.287 169.949 112.321C169.98 112.356 170.004 112.397 170.02 112.443C170.037 112.489 170.045 112.538 170.045 112.588C170.045 112.638 170.037 112.687 170.02 112.733C170.004 112.778 169.98 112.82 169.949 112.854C169.919 112.889 169.883 112.916 169.843 112.933C169.804 112.951 169.762 112.959 169.719 112.958Z" fill="#367CFF"/>
<path d="M169.718 119.635H167.039C166.956 119.635 166.876 119.596 166.817 119.526C166.758 119.457 166.724 119.363 166.724 119.265C166.724 119.166 166.758 119.072 166.817 119.003C166.876 118.933 166.956 118.894 167.039 118.894H169.718C169.802 118.894 169.882 118.933 169.941 119.003C170 119.072 170.033 119.166 170.033 119.265C170.033 119.363 170 119.457 169.941 119.526C169.882 119.596 169.802 119.635 169.718 119.635Z" fill="#367CFF"/>
<path d="M169.718 126.309H167.039C166.956 126.309 166.876 126.27 166.817 126.201C166.758 126.132 166.724 126.038 166.724 125.939C166.724 125.841 166.758 125.747 166.817 125.678C166.876 125.608 166.956 125.569 167.039 125.569H169.718C169.802 125.569 169.882 125.608 169.941 125.678C170 125.747 170.033 125.841 170.033 125.939C170.033 126.038 170 126.132 169.941 126.201C169.882 126.27 169.802 126.309 169.718 126.309Z" fill="#367CFF"/>
<path d="M169.719 132.985H167.04C166.998 132.987 166.955 132.979 166.916 132.961C166.876 132.943 166.84 132.916 166.81 132.882C166.78 132.847 166.755 132.806 166.739 132.76C166.722 132.714 166.714 132.665 166.714 132.615C166.714 132.566 166.722 132.516 166.739 132.471C166.755 132.425 166.78 132.383 166.81 132.349C166.84 132.314 166.876 132.287 166.916 132.27C166.955 132.252 166.998 132.244 167.04 132.245H169.719C169.762 132.244 169.804 132.252 169.843 132.27C169.883 132.287 169.919 132.314 169.949 132.349C169.98 132.383 170.004 132.425 170.02 132.471C170.037 132.516 170.045 132.566 170.045 132.615C170.045 132.665 170.037 132.714 170.02 132.76C170.004 132.806 169.98 132.847 169.949 132.882C169.919 132.916 169.883 132.943 169.843 132.961C169.804 132.979 169.762 132.987 169.719 132.985Z" fill="#367CFF"/>
<path d="M169.718 139.661H167.039C166.956 139.661 166.876 139.622 166.817 139.553C166.758 139.484 166.724 139.389 166.724 139.291C166.724 139.193 166.758 139.099 166.817 139.029C166.876 138.96 166.956 138.921 167.039 138.921H169.718C169.802 138.921 169.882 138.96 169.941 139.029C170 139.099 170.033 139.193 170.033 139.291C170.033 139.389 170 139.484 169.941 139.553C169.882 139.622 169.802 139.661 169.718 139.661Z" fill="#367CFF"/>
<path d="M169.718 146.337H167.039C166.956 146.337 166.876 146.298 166.817 146.229C166.758 146.159 166.724 146.065 166.724 145.967C166.724 145.869 166.758 145.775 166.817 145.705C166.876 145.636 166.956 145.597 167.039 145.597H169.718C169.802 145.597 169.882 145.636 169.941 145.705C170 145.775 170.033 145.869 170.033 145.967C170.033 146.065 170 146.159 169.941 146.229C169.882 146.298 169.802 146.337 169.718 146.337Z" fill="#367CFF"/>
<path d="M169.719 153.013H167.04C166.998 153.015 166.955 153.007 166.916 152.989C166.876 152.971 166.84 152.944 166.81 152.91C166.78 152.875 166.755 152.834 166.739 152.788C166.722 152.742 166.714 152.693 166.714 152.643C166.714 152.593 166.722 152.544 166.739 152.498C166.755 152.453 166.78 152.411 166.81 152.377C166.84 152.342 166.876 152.315 166.916 152.297C166.955 152.28 166.998 152.271 167.04 152.273H169.719C169.762 152.271 169.804 152.28 169.843 152.297C169.883 152.315 169.919 152.342 169.949 152.377C169.98 152.411 170.004 152.453 170.02 152.498C170.037 152.544 170.045 152.593 170.045 152.643C170.045 152.693 170.037 152.742 170.02 152.788C170.004 152.834 169.98 152.875 169.949 152.91C169.919 152.944 169.883 152.971 169.843 152.989C169.804 153.007 169.762 153.015 169.719 153.013Z" fill="#367CFF"/>
<path d="M187.568 72.9022H181.117C181.074 72.904 181.032 72.8958 180.993 72.8781C180.953 72.8603 180.917 72.8333 180.887 72.7988C180.856 72.7643 180.832 72.7229 180.816 72.6771C180.799 72.6313 180.791 72.5821 180.791 72.5323C180.791 72.4826 180.799 72.4334 180.816 72.3876C180.832 72.3418 180.856 72.3004 180.887 72.2659C180.917 72.2313 180.953 72.2044 180.993 72.1866C181.032 72.1689 181.074 72.1607 181.117 72.1625H187.568C187.611 72.1607 187.653 72.1689 187.692 72.1866C187.732 72.2044 187.768 72.2313 187.798 72.2659C187.829 72.3004 187.853 72.3418 187.869 72.3876C187.886 72.4334 187.894 72.4826 187.894 72.5323C187.894 72.5821 187.886 72.6313 187.869 72.6771C187.853 72.7229 187.829 72.7643 187.798 72.7988C187.768 72.8333 187.732 72.8603 187.692 72.8781C187.653 72.8958 187.611 72.904 187.568 72.9022Z" fill="#292A2E"/>
<path d="M181.909 112.958H174.827C174.784 112.959 174.742 112.951 174.703 112.933C174.663 112.916 174.627 112.889 174.597 112.854C174.566 112.82 174.542 112.778 174.526 112.733C174.509 112.687 174.501 112.638 174.501 112.588C174.501 112.538 174.509 112.489 174.526 112.443C174.542 112.397 174.566 112.356 174.597 112.321C174.627 112.287 174.663 112.26 174.703 112.242C174.742 112.224 174.784 112.216 174.827 112.218H181.909C181.99 112.221 182.067 112.262 182.124 112.331C182.18 112.4 182.212 112.492 182.212 112.588C182.212 112.684 182.18 112.776 182.124 112.845C182.067 112.914 181.99 112.954 181.909 112.958Z" fill="#292A2E"/>
<path d="M187.568 119.635H181.117C181.033 119.635 180.953 119.596 180.894 119.526C180.835 119.457 180.802 119.363 180.802 119.265C180.802 119.166 180.835 119.072 180.894 119.003C180.953 118.933 181.033 118.894 181.117 118.894H187.568C187.652 118.894 187.732 118.933 187.791 119.003C187.85 119.072 187.883 119.166 187.883 119.265C187.883 119.363 187.85 119.457 187.791 119.526C187.732 119.596 187.652 119.635 187.568 119.635Z" fill="#292A2E"/>
<path d="M232.533 79.5782H185.518C185.434 79.5782 185.354 79.5393 185.295 79.4698C185.236 79.4004 185.203 79.3062 185.203 79.2081C185.203 79.1099 185.236 79.0157 185.295 78.9463C185.354 78.8769 185.434 78.8379 185.518 78.8379H232.533C232.617 78.8379 232.697 78.8769 232.756 78.9463C232.815 79.0157 232.848 79.1099 232.848 79.2081C232.848 79.3062 232.815 79.4004 232.756 79.4698C232.697 79.5393 232.617 79.5782 232.533 79.5782Z" fill="#292A2E"/>
<path d="M266.548 79.5782H239.34C239.257 79.5782 239.177 79.5393 239.118 79.4698C239.059 79.4004 239.026 79.3062 239.026 79.2081C239.026 79.1099 239.059 79.0157 239.118 78.9463C239.177 78.8769 239.257 78.8379 239.34 78.8379H266.548C266.631 78.8379 266.711 78.8769 266.77 78.9463C266.829 79.0157 266.862 79.1099 266.862 79.2081C266.862 79.3062 266.829 79.4004 266.77 79.4698C266.711 79.5393 266.631 79.5782 266.548 79.5782Z" fill="#0CBC8B"/>
<path d="M281.148 79.5782H272.81C272.726 79.5782 272.646 79.5393 272.587 79.4698C272.529 79.4004 272.495 79.3062 272.495 79.2081C272.495 79.1099 272.529 79.0157 272.587 78.9463C272.646 78.8769 272.726 78.8379 272.81 78.8379H281.149C281.232 78.8379 281.312 78.8769 281.371 78.9463C281.43 79.0157 281.464 79.1099 281.464 79.2081C281.464 79.3062 281.43 79.4004 281.371 79.4698C281.312 79.5393 281.232 79.5782 281.149 79.5782H281.148Z" fill="#292A2E"/>
<path d="M251.399 92.9298H185.518C185.475 92.9316 185.433 92.9234 185.394 92.9057C185.354 92.8879 185.318 92.8609 185.288 92.8264C185.257 92.7919 185.233 92.7505 185.217 92.7047C185.2 92.6589 185.192 92.6097 185.192 92.5599C185.192 92.5102 185.2 92.4609 185.217 92.4152C185.233 92.3694 185.257 92.328 185.288 92.2935C185.318 92.2589 185.354 92.232 185.394 92.2142C185.433 92.1965 185.475 92.1882 185.518 92.1901H251.399C251.442 92.1882 251.484 92.1965 251.523 92.2142C251.563 92.232 251.599 92.2589 251.629 92.2935C251.66 92.328 251.684 92.3694 251.7 92.4152C251.717 92.4609 251.725 92.5102 251.725 92.5599C251.725 92.6097 251.717 92.6589 251.7 92.7047C251.684 92.7505 251.66 92.7919 251.629 92.8264C251.599 92.8609 251.563 92.8879 251.523 92.9057C251.484 92.9234 251.442 92.9316 251.399 92.9298Z" fill="#292A2E"/>
<path d="M266.547 92.9298H258.209C258.167 92.9316 258.124 92.9234 258.085 92.9057C258.045 92.8879 258.009 92.8609 257.979 92.8264C257.949 92.7919 257.924 92.7505 257.908 92.7047C257.891 92.6589 257.883 92.6097 257.883 92.5599C257.883 92.5102 257.891 92.4609 257.908 92.4152C257.924 92.3694 257.949 92.328 257.979 92.2935C258.009 92.2589 258.045 92.232 258.085 92.2142C258.124 92.1965 258.167 92.1882 258.209 92.1901H266.548C266.591 92.1882 266.633 92.1965 266.672 92.2142C266.712 92.232 266.748 92.2589 266.778 92.2935C266.809 92.328 266.833 92.3694 266.849 92.4152C266.866 92.4609 266.874 92.5102 266.874 92.5599C266.874 92.6097 266.866 92.6589 266.849 92.7047C266.833 92.7505 266.809 92.7919 266.778 92.8264C266.748 92.8609 266.712 92.8879 266.672 92.9057C266.633 92.9234 266.591 92.9316 266.548 92.9298H266.547Z" fill="#367CFF"/>
<path d="M192.6 86.2543H185.518C185.434 86.2543 185.354 86.2153 185.295 86.1458C185.236 86.0764 185.203 85.9823 185.203 85.8841C185.203 85.7859 185.236 85.6918 185.295 85.6223C185.354 85.5529 185.434 85.5139 185.518 85.5139H192.6C192.683 85.5139 192.763 85.5529 192.822 85.6223C192.881 85.6918 192.914 85.7859 192.914 85.8841C192.914 85.9823 192.881 86.0764 192.822 86.1458C192.763 86.2153 192.683 86.2543 192.6 86.2543Z" fill="#0CBC8B"/>
<path d="M247.682 86.2543H199.408C199.324 86.2543 199.244 86.2153 199.185 86.1458C199.126 86.0764 199.093 85.9823 199.093 85.8841C199.093 85.7859 199.126 85.6918 199.185 85.6223C199.244 85.5529 199.324 85.5139 199.408 85.5139H247.682C247.766 85.5139 247.846 85.5529 247.905 85.6223C247.964 85.6918 247.997 85.7859 247.997 85.8841C247.997 85.9823 247.964 86.0764 247.905 86.1458C247.846 86.2153 247.766 86.2543 247.682 86.2543Z" fill="#367CFF"/>
<path d="M281.203 86.2543H255.255C255.171 86.2543 255.091 86.2153 255.032 86.1458C254.973 86.0764 254.94 85.9823 254.94 85.8841C254.94 85.7859 254.973 85.6918 255.032 85.6223C255.091 85.5529 255.171 85.5139 255.255 85.5139H281.203C281.286 85.5139 281.366 85.5529 281.425 85.6223C281.484 85.6918 281.518 85.7859 281.518 85.8841C281.518 85.9823 281.484 86.0764 281.425 86.1458C281.366 86.2153 281.286 86.2543 281.203 86.2543Z" fill="#292A2E"/>
<path d="M232.533 99.6041H185.518C185.434 99.6041 185.354 99.5651 185.295 99.4957C185.236 99.4263 185.203 99.3321 185.203 99.2339C185.203 99.1357 185.236 99.0415 185.295 98.9721C185.354 98.9027 185.434 98.8636 185.518 98.8636H232.533C232.617 98.8636 232.697 98.9027 232.756 98.9721C232.815 99.0415 232.848 99.1357 232.848 99.2339C232.848 99.3321 232.815 99.4263 232.756 99.4957C232.697 99.5651 232.617 99.6041 232.533 99.6041Z" fill="#292A2E"/>
<path d="M253.97 99.6041H239.341C239.258 99.6041 239.178 99.5651 239.119 99.4957C239.06 99.4263 239.027 99.3321 239.027 99.2339C239.027 99.1357 239.06 99.0415 239.119 98.9721C239.178 98.9027 239.258 98.8636 239.341 98.8636H253.97C254.053 98.8636 254.133 98.9027 254.192 98.9721C254.251 99.0415 254.285 99.1357 254.285 99.2339C254.285 99.3321 254.251 99.4263 254.192 99.4957C254.133 99.5651 254.053 99.6041 253.97 99.6041Z" fill="#0CBC8B"/>
<path d="M281.148 99.6041H260.231C260.147 99.6041 260.067 99.5651 260.009 99.4957C259.95 99.4263 259.916 99.3321 259.916 99.2339C259.916 99.1357 259.95 99.0415 260.009 98.9721C260.067 98.9027 260.147 98.8636 260.231 98.8636H281.148C281.232 98.8636 281.312 98.9027 281.371 98.9721C281.43 99.0415 281.463 99.1357 281.463 99.2339C281.463 99.3321 281.43 99.4263 281.371 99.4957C281.312 99.5651 281.232 99.6041 281.148 99.6041Z" fill="#292A2E"/>
<path d="M192.6 106.282H185.518C185.434 106.282 185.354 106.243 185.295 106.174C185.236 106.104 185.203 106.01 185.203 105.912C185.203 105.814 185.236 105.719 185.295 105.65C185.354 105.581 185.434 105.542 185.518 105.542H192.6C192.683 105.542 192.763 105.581 192.822 105.65C192.881 105.719 192.914 105.814 192.914 105.912C192.914 106.01 192.881 106.104 192.822 106.174C192.763 106.243 192.683 106.282 192.6 106.282Z" fill="#367CFF"/>
<path d="M247.682 106.282H199.408C199.324 106.282 199.244 106.243 199.185 106.174C199.126 106.104 199.093 106.01 199.093 105.912C199.093 105.814 199.126 105.719 199.185 105.65C199.244 105.581 199.324 105.542 199.408 105.542H247.682C247.766 105.542 247.846 105.581 247.905 105.65C247.964 105.719 247.997 105.814 247.997 105.912C247.997 106.01 247.964 106.104 247.905 106.174C247.846 106.243 247.766 106.282 247.682 106.282Z" fill="#0CBC8B"/>
<path d="M231.275 132.986H184.26C184.177 132.986 184.097 132.947 184.038 132.877C183.979 132.808 183.946 132.714 183.946 132.616C183.946 132.517 183.979 132.423 184.038 132.354C184.097 132.284 184.177 132.245 184.26 132.245H231.275C231.358 132.245 231.438 132.284 231.497 132.354C231.556 132.423 231.59 132.517 231.59 132.616C231.59 132.714 231.556 132.808 231.497 132.877C231.438 132.947 231.358 132.986 231.275 132.986Z" fill="#292A2E"/>
<path d="M265.29 132.986H238.083C237.999 132.986 237.919 132.947 237.86 132.877C237.801 132.808 237.768 132.714 237.768 132.616C237.768 132.517 237.801 132.423 237.86 132.354C237.919 132.284 237.999 132.245 238.083 132.245H265.29C265.373 132.245 265.453 132.284 265.512 132.354C265.571 132.423 265.604 132.517 265.604 132.616C265.604 132.714 265.571 132.808 265.512 132.877C265.453 132.947 265.373 132.986 265.29 132.986Z" fill="#367CFF"/>
<path d="M203.922 126.309H184.26C184.177 126.309 184.097 126.27 184.038 126.201C183.979 126.132 183.946 126.038 183.946 125.939C183.946 125.841 183.979 125.747 184.038 125.678C184.097 125.608 184.177 125.569 184.26 125.569H203.922C204.005 125.569 204.085 125.608 204.144 125.678C204.203 125.747 204.236 125.841 204.236 125.939C204.236 126.038 204.203 126.132 204.144 126.201C204.085 126.27 204.005 126.309 203.922 126.309Z" fill="#0CBC8B"/>
<path d="M246.423 126.309H210.727C210.644 126.309 210.564 126.27 210.505 126.201C210.446 126.132 210.412 126.038 210.412 125.939C210.412 125.841 210.446 125.747 210.505 125.678C210.564 125.608 210.644 125.569 210.727 125.569H246.423C246.507 125.569 246.587 125.608 246.646 125.678C246.705 125.747 246.738 125.841 246.738 125.939C246.738 126.038 246.705 126.132 246.646 126.201C246.587 126.27 246.507 126.309 246.423 126.309Z" fill="#367CFF"/>
<path d="M279.945 126.309H253.997C253.914 126.309 253.834 126.27 253.775 126.201C253.716 126.132 253.682 126.038 253.682 125.939C253.682 125.841 253.716 125.747 253.775 125.678C253.834 125.608 253.914 125.569 253.997 125.569H279.945C280.029 125.569 280.109 125.608 280.168 125.678C280.227 125.747 280.26 125.841 280.26 125.939C280.26 126.038 280.227 126.132 280.168 126.201C280.109 126.27 280.029 126.309 279.945 126.309Z" fill="#292A2E"/>
<path d="M250.142 146.337H184.26C184.177 146.337 184.097 146.298 184.038 146.229C183.979 146.159 183.946 146.065 183.946 145.967C183.946 145.869 183.979 145.775 184.038 145.705C184.097 145.636 184.177 145.597 184.26 145.597H250.142C250.225 145.597 250.305 145.636 250.364 145.705C250.423 145.775 250.456 145.869 250.456 145.967C250.456 146.065 250.423 146.159 250.364 146.229C250.305 146.298 250.225 146.337 250.142 146.337Z" fill="#367CFF"/>
<path d="M269.534 146.337H256.95C256.867 146.337 256.787 146.298 256.728 146.229C256.669 146.159 256.636 146.065 256.636 145.967C256.636 145.869 256.669 145.775 256.728 145.705C256.787 145.636 256.867 145.597 256.95 145.597H269.534C269.618 145.597 269.698 145.636 269.757 145.705C269.816 145.775 269.849 145.869 269.849 145.967C269.849 146.065 269.816 146.159 269.757 146.229C269.698 146.298 269.618 146.337 269.534 146.337Z" fill="#292A2E"/>
<path d="M191.342 139.661H184.26C184.218 139.663 184.176 139.655 184.136 139.637C184.097 139.619 184.061 139.592 184.03 139.558C184 139.523 183.976 139.482 183.959 139.436C183.942 139.39 183.934 139.341 183.934 139.291C183.934 139.242 183.942 139.192 183.959 139.147C183.976 139.101 184 139.059 184.03 139.025C184.061 138.99 184.097 138.963 184.136 138.946C184.176 138.928 184.218 138.92 184.26 138.922H191.342C191.384 138.92 191.426 138.928 191.466 138.946C191.505 138.963 191.541 138.99 191.571 139.025C191.602 139.059 191.626 139.101 191.643 139.147C191.659 139.192 191.668 139.242 191.668 139.291C191.668 139.341 191.659 139.39 191.643 139.436C191.626 139.482 191.602 139.523 191.571 139.558C191.541 139.592 191.505 139.619 191.466 139.637C191.426 139.655 191.384 139.663 191.342 139.661Z" fill="#367CFF"/>
<path d="M246.423 139.661H198.149C198.107 139.663 198.065 139.655 198.025 139.637C197.986 139.619 197.95 139.592 197.919 139.558C197.889 139.523 197.865 139.482 197.848 139.436C197.832 139.39 197.823 139.341 197.823 139.291C197.823 139.242 197.832 139.192 197.848 139.147C197.865 139.101 197.889 139.059 197.919 139.025C197.95 138.99 197.986 138.963 198.025 138.946C198.065 138.928 198.107 138.92 198.149 138.922H246.423C246.465 138.92 246.508 138.928 246.547 138.946C246.587 138.963 246.623 138.99 246.653 139.025C246.683 139.059 246.708 139.101 246.724 139.147C246.741 139.192 246.749 139.242 246.749 139.291C246.749 139.341 246.741 139.39 246.724 139.436C246.708 139.482 246.683 139.523 246.653 139.558C246.623 139.592 246.587 139.619 246.547 139.637C246.508 139.655 246.465 139.663 246.423 139.661Z" fill="#292A2E"/>
<path d="M279.945 139.661H253.997C253.955 139.663 253.913 139.655 253.873 139.637C253.834 139.619 253.798 139.592 253.767 139.558C253.737 139.523 253.712 139.482 253.696 139.436C253.679 139.39 253.671 139.341 253.671 139.291C253.671 139.242 253.679 139.192 253.696 139.147C253.712 139.101 253.737 139.059 253.767 139.025C253.798 138.99 253.834 138.963 253.873 138.946C253.913 138.928 253.955 138.92 253.997 138.922H279.945C279.988 138.92 280.03 138.928 280.069 138.946C280.109 138.963 280.145 138.99 280.175 139.025C280.206 139.059 280.23 139.101 280.246 139.147C280.263 139.192 280.271 139.242 280.271 139.291C280.271 139.341 280.263 139.39 280.246 139.436C280.23 139.482 280.206 139.523 280.175 139.558C280.145 139.592 280.109 139.619 280.069 139.637C280.03 139.655 279.988 139.663 279.945 139.661Z" fill="#0CBC8B"/>
<path d="M231.275 153.013H184.26C184.177 153.013 184.097 152.974 184.038 152.905C183.979 152.836 183.946 152.741 183.946 152.643C183.946 152.545 183.979 152.451 184.038 152.382C184.097 152.312 184.177 152.273 184.26 152.273H231.275C231.358 152.273 231.438 152.312 231.497 152.382C231.556 152.451 231.59 152.545 231.59 152.643C231.59 152.741 231.556 152.836 231.497 152.905C231.438 152.974 231.358 153.013 231.275 153.013Z" fill="#0CBC8B"/>
<path d="M252.712 153.013H238.084C238 153.013 237.92 152.974 237.861 152.905C237.802 152.835 237.769 152.741 237.769 152.643C237.769 152.545 237.802 152.451 237.861 152.382C237.92 152.312 238 152.273 238.084 152.273H252.712C252.796 152.273 252.876 152.312 252.935 152.382C252.994 152.451 253.027 152.545 253.027 152.643C253.027 152.741 252.994 152.835 252.935 152.905C252.876 152.974 252.796 153.013 252.712 153.013Z" fill="#292A2E"/>
<path d="M279.891 153.013H258.973C258.889 153.013 258.809 152.974 258.75 152.905C258.691 152.835 258.658 152.741 258.658 152.643C258.658 152.545 258.691 152.451 258.75 152.382C258.809 152.312 258.889 152.273 258.973 152.273H279.89C279.974 152.273 280.054 152.312 280.113 152.382C280.172 152.451 280.205 152.545 280.205 152.643C280.205 152.741 280.172 152.835 280.113 152.905C280.054 152.974 279.974 153.013 279.89 153.013H279.891Z" fill="#367CFF"/>
<path d="M162.78 156.66C162.739 156.66 162.698 156.65 162.66 156.632C162.621 156.613 162.587 156.586 162.558 156.552C162.528 156.517 162.505 156.477 162.489 156.432C162.474 156.387 162.465 156.339 162.465 156.29V54.5735C162.465 54.4753 162.499 54.3812 162.558 54.3118C162.617 54.2424 162.697 54.2034 162.78 54.2034C162.863 54.2034 162.943 54.2424 163.002 54.3118C163.061 54.3812 163.095 54.4753 163.095 54.5735V156.29C163.095 156.339 163.086 156.387 163.071 156.432C163.055 156.477 163.032 156.517 163.002 156.552C162.973 156.586 162.938 156.613 162.9 156.632C162.862 156.65 162.821 156.66 162.78 156.66Z" fill="#292A2E"/>
<path d="M148.397 59.1956H134.778C134.695 59.1956 134.615 59.1566 134.556 59.0871C134.497 59.0177 134.464 58.9236 134.464 58.8254C134.464 58.7272 134.497 58.633 134.556 58.5636C134.615 58.4942 134.695 58.4552 134.778 58.4552H148.395C148.479 58.4552 148.559 58.4942 148.618 58.5636C148.677 58.633 148.71 58.7272 148.71 58.8254C148.71 58.9236 148.677 59.0177 148.618 59.0871C148.559 59.1566 148.479 59.1956 148.395 59.1956H148.397Z" fill="#292A2E"/>
<path d="M144.296 66.4945H134.779C134.737 66.4963 134.695 66.4881 134.655 66.4703C134.616 66.4526 134.58 66.4256 134.549 66.3911C134.519 66.3566 134.495 66.3152 134.478 66.2694C134.462 66.2236 134.453 66.1743 134.453 66.1246C134.453 66.0748 134.462 66.0256 134.478 65.9798C134.495 65.934 134.519 65.8926 134.549 65.8581C134.58 65.8235 134.616 65.7966 134.655 65.7788C134.695 65.761 134.737 65.7528 134.779 65.7546H144.294C144.376 65.7582 144.453 65.7987 144.509 65.8677C144.566 65.9367 144.597 66.0287 144.597 66.1246C144.597 66.2204 144.566 66.3125 144.509 66.3815C144.453 66.4505 144.376 66.491 144.294 66.4945H144.296Z" fill="#292A2E"/>
<path d="M152.662 73.7939H134.778C134.695 73.7939 134.615 73.7549 134.556 73.6855C134.497 73.6161 134.464 73.5219 134.464 73.4237C134.464 73.3255 134.497 73.2313 134.556 73.1619C134.615 73.0925 134.695 73.0535 134.778 73.0535H152.661C152.744 73.0535 152.824 73.0925 152.883 73.1619C152.942 73.2313 152.975 73.3255 152.975 73.4237C152.975 73.5219 152.942 73.6161 152.883 73.6855C152.824 73.7549 152.744 73.7939 152.661 73.7939H152.662Z" fill="#292A2E"/>
<path d="M155.999 81.0929H141.07C141.028 81.0947 140.986 81.0865 140.946 81.0687C140.907 81.051 140.871 81.024 140.84 80.9895C140.81 80.9549 140.785 80.9136 140.769 80.8678C140.752 80.822 140.744 80.7727 140.744 80.723C140.744 80.6732 140.752 80.624 140.769 80.5782C140.785 80.5324 140.81 80.491 140.84 80.4564C140.871 80.4219 140.907 80.395 140.946 80.3772C140.986 80.3594 141.028 80.3512 141.07 80.353H155.999C156.041 80.3512 156.083 80.3594 156.123 80.3772C156.162 80.395 156.198 80.4219 156.229 80.4564C156.259 80.491 156.283 80.5324 156.3 80.5782C156.317 80.624 156.325 80.6732 156.325 80.723C156.325 80.7727 156.317 80.822 156.3 80.8678C156.283 80.9136 156.259 80.9549 156.229 80.9895C156.198 81.024 156.162 81.051 156.123 81.0687C156.083 81.0865 156.041 81.0947 155.999 81.0929Z" fill="#292A2E"/>
<path d="M148.78 88.3922H141.07C140.986 88.3922 140.906 88.3532 140.847 88.2838C140.789 88.2144 140.755 88.1203 140.755 88.0221C140.755 87.9239 140.789 87.8298 140.847 87.7604C140.906 87.691 140.986 87.652 141.07 87.652H148.78C148.864 87.652 148.944 87.691 149.003 87.7604C149.062 87.8298 149.095 87.9239 149.095 88.0221C149.095 88.1203 149.062 88.2144 149.003 88.2838C148.944 88.3532 148.864 88.3922 148.78 88.3922Z" fill="#292A2E"/>
<path d="M154.686 95.6919H141.07C140.986 95.6919 140.906 95.6529 140.847 95.5835C140.789 95.5141 140.755 95.4199 140.755 95.3217C140.755 95.2235 140.789 95.1294 140.847 95.06C140.906 94.9905 140.986 94.9515 141.07 94.9515H154.686C154.769 94.9515 154.849 94.9905 154.908 95.06C154.967 95.1294 155 95.2235 155 95.3217C155 95.4199 154.967 95.5141 154.908 95.5835C154.849 95.6529 154.769 95.6919 154.686 95.6919Z" fill="#292A2E"/>
<path d="M145.28 102.991H134.778C134.695 102.991 134.615 102.952 134.556 102.882C134.497 102.813 134.464 102.719 134.464 102.621C134.464 102.522 134.497 102.428 134.556 102.359C134.615 102.289 134.695 102.25 134.778 102.25H145.278C145.361 102.25 145.441 102.289 145.5 102.359C145.559 102.428 145.592 102.522 145.592 102.621C145.592 102.719 145.559 102.813 145.5 102.882C145.441 102.952 145.361 102.991 145.278 102.991H145.28Z" fill="#292A2E"/>
<path d="M141.67 110.29H134.778C134.695 110.29 134.615 110.251 134.556 110.182C134.497 110.113 134.464 110.018 134.464 109.92C134.464 109.822 134.497 109.728 134.556 109.658C134.615 109.589 134.695 109.55 134.778 109.55H141.668C141.752 109.55 141.832 109.589 141.891 109.658C141.95 109.728 141.983 109.822 141.983 109.92C141.983 110.018 141.95 110.113 141.891 110.182C141.832 110.251 141.752 110.29 141.668 110.29H141.67Z" fill="#292A2E"/>
<path d="M169.291 57.6299V57.7633L173.222 59.4801C173.278 59.507 173.326 59.5532 173.36 59.6126C173.394 59.672 173.411 59.7419 173.411 59.8133V59.9392C173.412 59.9949 173.4 60.05 173.378 60.0992C173.356 60.1484 173.323 60.1901 173.283 60.2204C173.244 60.2534 173.197 60.2741 173.149 60.2805C173.101 60.287 173.052 60.279 173.007 60.2573L168.567 58.2143C168.511 58.1884 168.464 58.1435 168.43 58.0855C168.397 58.0274 168.378 57.9589 168.378 57.8887V57.5115C168.378 57.4411 168.395 57.3721 168.429 57.3139C168.463 57.2557 168.511 57.211 168.567 57.1858L173.007 55.1378C173.043 55.1231 173.081 55.1156 173.12 55.1154C173.178 55.1169 173.235 55.1374 173.283 55.1748C173.323 55.2066 173.356 55.2497 173.378 55.3001C173.401 55.3505 173.412 55.4067 173.411 55.4635V55.5889C173.412 55.6595 173.395 55.7289 173.361 55.7872C173.327 55.8456 173.279 55.8901 173.222 55.9146L169.291 57.6299Z" fill="#367CFF"/>
<path d="M177.084 53.6259L174.732 62.1002C174.713 62.1711 174.675 62.2329 174.624 62.2768C174.573 62.3208 174.512 62.3445 174.449 62.3445C174.403 62.3454 174.358 62.333 174.317 62.3084C174.276 62.2838 174.242 62.2478 174.216 62.2036C174.187 62.1599 174.168 62.109 174.16 62.0552C174.151 62.0013 174.153 61.9458 174.165 61.8929L176.517 53.4261C176.538 53.3543 176.576 53.2918 176.628 53.247C176.68 53.2023 176.742 53.1776 176.807 53.1763C176.852 53.1763 176.897 53.189 176.938 53.2135C176.978 53.238 177.013 53.2736 177.039 53.3172C177.067 53.3607 177.086 53.4115 177.093 53.4652C177.101 53.5189 177.098 53.574 177.084 53.6259Z" fill="#367CFF"/>
<path d="M182.859 57.5115V57.8886C182.86 57.9581 182.843 58.0264 182.811 58.0845C182.778 58.1426 182.731 58.1878 182.677 58.2143L178.23 60.2573C178.186 60.2788 178.138 60.2866 178.091 60.2801C178.044 60.2737 177.999 60.2531 177.96 60.2204C177.92 60.1901 177.887 60.1486 177.864 60.0995C177.841 60.0503 177.828 59.9952 177.828 59.9391V59.8132C177.827 59.7407 177.846 59.6697 177.881 59.61C177.915 59.5503 177.965 59.5049 178.023 59.4801L181.954 57.7632V57.6299L178.023 55.9125C177.965 55.89 177.915 55.8462 177.88 55.7876C177.845 55.7289 177.827 55.6586 177.828 55.5868V55.4615C177.828 55.4043 177.84 55.3481 177.863 55.2978C177.886 55.2474 177.92 55.2045 177.96 55.1727C178.009 55.1355 178.065 55.1149 178.123 55.1133C178.16 55.1128 178.196 55.1204 178.23 55.1358L182.677 57.1838C182.732 57.2096 182.779 57.255 182.812 57.3137C182.845 57.3723 182.861 57.4414 182.859 57.5115Z" fill="#367CFF"/>
<path d="M21.3423 293.803C18.7781 293.802 16.252 293.073 13.9789 291.676C11.7058 290.28 9.75308 288.257 8.28686 285.782C6.82064 283.306 5.88435 280.45 5.55768 277.457C5.23101 274.464 5.52362 271.422 6.41062 268.591C7.31088 265.716 30.4026 195.565 34.4242 183.373L62.2128 202.405C59.9531 209.26 51.7638 235.246 45.1848 256.178L56.1148 254.78L59.5528 289.027L23.0643 293.693C22.4924 293.766 21.9175 293.803 21.3423 293.803Z" fill="#367CFF"/>
<path d="M112.236 168.787C112.138 168.772 109.464 180.616 88.594 178.773C74.1458 177.499 70.6229 165.925 70.2918 165.925C71.8495 165.535 74.3793 165.131 75.0711 164.696C77.3462 163.258 79.0032 161.506 79.8377 157.748C80.49 154.809 80.8224 143.494 80.8224 137.817L103.055 143.696C102.745 150.1 100.576 164.946 108.178 167.573C109.443 168.005 110.805 168.405 112.236 168.787Z" fill="#E98862"/>
<path d="M102.285 156.284C93.521 157.098 82.2621 152.743 80.1233 138.981L78.1938 126.564C76.055 112.802 80.4633 100.324 91.4735 97.9546C102.483 95.5849 112.447 104.969 114.585 118.731L115.44 124.229C116.26 129.509 117.923 154.832 102.285 156.284Z" fill="#E98862"/>
<path d="M60.7978 167.828C52.9217 168.516 44.8907 169.519 39.0953 175.834C32.1157 183.438 30.8508 192.789 35.3037 218.521C39.1348 240.662 37.6148 250.337 40.1781 291.194C40.2536 292.397 40.4153 294.887 40.4153 294.887L124.668 294.723C124.668 294.723 132.563 240.516 136.922 215.515C140.236 196.508 148.943 173.433 112.234 168.783C112.139 168.771 82.6993 165.916 60.7978 167.828Z" fill="#367CFF"/>
<path d="M40.417 295.137C40.3621 295.137 40.3093 295.112 40.2697 295.067C40.2301 295.022 40.2068 294.961 40.2048 294.897L37.5643 214.237C37.5632 214.204 37.5677 214.171 37.5773 214.14C37.587 214.11 37.6018 214.081 37.6207 214.057C37.6397 214.033 37.6625 214.014 37.6878 214C37.7132 213.986 37.7406 213.979 37.7685 213.977C37.7966 213.975 37.8249 213.979 37.8516 213.99C37.8782 214.001 37.9027 214.018 37.9234 214.041C37.9441 214.063 37.9606 214.091 37.9718 214.121C37.9831 214.152 37.9888 214.184 37.9887 214.218L40.6292 294.878C40.6313 294.944 40.6109 295.008 40.5726 295.057C40.5343 295.105 40.4813 295.134 40.425 295.136L40.417 295.137Z" fill="#0C0C0C"/>
<path d="M175.611 196.627L181.531 181.001C181.661 180.657 181.85 180.35 182.087 180.097C182.323 179.845 182.602 179.653 182.905 179.534C183.208 179.416 183.529 179.372 183.847 179.407C184.165 179.443 184.473 179.555 184.752 179.738C185.259 180.095 185.635 180.661 185.807 181.325C185.979 181.99 185.935 182.706 185.684 183.335L184.415 186.686L192.516 178.305C193.402 177.356 195.007 176.856 195.848 178.097C196.197 178.55 196.407 179.129 196.441 179.739C196.475 180.35 196.333 180.956 196.037 181.459C196.046 181.466 196.055 181.475 196.063 181.485C196.068 181.494 196.073 181.503 196.077 181.512L197.444 180.047C197.698 179.776 197.999 179.575 198.327 179.458C198.655 179.341 199.001 179.312 199.34 179.373C199.678 179.433 200.001 179.582 200.285 179.808C200.569 180.034 200.806 180.332 200.979 180.679C201.243 181.233 201.337 181.877 201.246 182.503C201.155 183.129 200.884 183.699 200.478 184.118L199.896 184.742C199.904 184.77 199.907 184.799 199.906 184.828C200.382 184.515 200.938 184.41 201.473 184.534C202.009 184.658 202.49 185.003 202.829 185.505C203.187 186.068 203.352 186.769 203.29 187.469C203.228 188.168 202.944 188.815 202.495 189.279L201.05 190.827C201.084 190.822 201.118 190.827 201.149 190.84C201.181 190.854 201.21 190.876 201.233 190.906C201.258 190.942 201.275 190.986 201.279 191.033C201.769 190.892 202.285 190.944 202.748 191.182C203.21 191.42 203.593 191.83 203.838 192.349C204.086 192.9 204.169 193.534 204.073 194.147C203.977 194.761 203.707 195.318 203.308 195.729L191.112 208.797C189.405 210.625 187.274 211.812 184.991 212.205C182.708 212.599 180.377 212.181 178.297 211.005C176.503 209.991 175.116 208.194 174.43 205.996C173.745 203.798 173.815 201.372 174.625 199.233L175.611 196.627Z" fill="#E98862"/>
<g opacity="0.2">
<path opacity="0.2" d="M188.051 189.799C188.088 189.847 188.141 189.876 188.196 189.88C188.252 189.883 188.306 189.861 188.348 189.817L196.044 181.836C196.086 181.792 196.112 181.73 196.115 181.664C196.119 181.598 196.1 181.533 196.063 181.483C196.025 181.433 195.973 181.403 195.917 181.399C195.86 181.394 195.805 181.417 195.763 181.461L188.067 189.442C188.046 189.464 188.029 189.49 188.017 189.519C188.005 189.549 187.997 189.581 187.996 189.614C187.994 189.646 187.998 189.679 188.007 189.71C188.016 189.741 188.03 189.77 188.048 189.795L188.051 189.799Z" fill="#0C0C0C"/>
</g>
<g opacity="0.2">
<path opacity="0.2" d="M190.949 193.89C190.986 193.939 191.038 193.968 191.094 193.971C191.15 193.974 191.204 193.952 191.246 193.908L199.834 185.001C199.855 184.979 199.872 184.953 199.884 184.923C199.896 184.894 199.904 184.862 199.905 184.829C199.907 184.796 199.903 184.763 199.894 184.732C199.885 184.701 199.871 184.673 199.853 184.648C199.814 184.6 199.762 184.571 199.707 184.567C199.651 184.563 199.596 184.584 199.553 184.626L190.965 193.534C190.944 193.556 190.927 193.582 190.914 193.611C190.902 193.641 190.895 193.673 190.893 193.706C190.891 193.738 190.895 193.771 190.904 193.802C190.913 193.833 190.928 193.862 190.946 193.886L190.949 193.89Z" fill="#0C0C0C"/>
</g>
<g opacity="0.2">
<path opacity="0.2" d="M194.065 198.343C194.103 198.392 194.155 198.421 194.211 198.424C194.266 198.427 194.321 198.405 194.362 198.361L201.213 191.255C201.255 191.212 201.281 191.15 201.285 191.084C201.288 191.018 201.269 190.952 201.232 190.903C201.195 190.853 201.142 190.823 201.086 190.819C201.03 190.815 200.974 190.837 200.932 190.881L194.081 197.987C194.061 198.009 194.044 198.035 194.031 198.064C194.019 198.094 194.012 198.126 194.01 198.159C194.008 198.191 194.012 198.224 194.021 198.255C194.03 198.286 194.044 198.315 194.063 198.339L194.065 198.343Z" fill="#0C0C0C"/>
</g>
<path d="M110.411 142.179C108.901 133.254 108.209 127.299 108.288 121.017C110.414 116.629 109.855 111.592 109.372 109.415C109.981 109.823 110.619 110.171 111.277 110.453C111.584 110.578 111.914 110.598 112.23 110.51C112.545 110.422 112.833 110.23 113.059 109.956C113.285 109.682 113.44 109.338 113.506 108.965C113.571 108.591 113.545 108.203 113.429 107.846C111.784 102.833 107.555 93.0912 98.8257 89.8269C96.6284 88.8204 91.0159 87.5491 83.5681 88.7514C77.2319 89.7744 62.8864 96.8486 60.6551 117.542V117.554C60.5812 118.24 57.8083 135.808 54.8185 144.956C50.7994 157.254 45.1564 161.075 45.2994 175.263C45.4836 193.515 73.9921 195.943 91.1908 194.579C108.389 193.214 117.987 186.559 118.111 173.406C118.246 158.667 113.429 160.036 110.411 142.179Z" fill="#0A0A0A"/>
<path d="M110.416 135.851C107.07 136.571 103.703 132.942 103.091 129.004C102.479 125.066 104.004 121.017 108.288 121.017L110.416 135.851Z" fill="#E98862"/>
<path d="M146.405 290.969C143.04 290.969 139.761 289.713 137.039 287.383C134.318 285.053 132.293 281.768 131.257 278L109.142 197.509L139.432 185.984L151.062 228.32L171.161 190.703L198.111 210.647L159.876 282.208C158.443 284.889 156.456 287.099 154.1 288.632C151.744 290.164 149.097 290.968 146.405 290.969Z" fill="#367CFF"/>
<path d="M128.561 268.744C128.547 268.744 128.534 268.743 128.522 268.74C128.466 268.728 128.417 268.69 128.385 268.636C128.354 268.581 128.341 268.514 128.352 268.449L135.869 220.424C135.874 220.392 135.885 220.361 135.9 220.334C135.915 220.306 135.934 220.282 135.957 220.264C135.98 220.245 136.006 220.232 136.034 220.225C136.061 220.218 136.089 220.218 136.116 220.224C136.144 220.23 136.17 220.242 136.193 220.26C136.217 220.278 136.237 220.301 136.253 220.328C136.269 220.355 136.28 220.385 136.286 220.417C136.291 220.449 136.292 220.482 136.287 220.515L128.769 268.541C128.76 268.598 128.734 268.65 128.696 268.687C128.658 268.724 128.61 268.744 128.561 268.744Z" fill="#0C0C0C"/>
<path d="M153.767 239.655C153.72 239.655 153.675 239.636 153.637 239.602C153.6 239.569 153.574 239.521 153.562 239.468L151.058 228.116C151.043 228.052 151.052 227.983 151.08 227.926C151.109 227.869 151.155 227.828 151.21 227.811C151.264 227.795 151.322 227.804 151.371 227.838C151.419 227.871 151.454 227.926 151.468 227.99L153.973 239.342C153.981 239.379 153.982 239.418 153.975 239.455C153.969 239.493 153.955 239.528 153.935 239.558C153.915 239.588 153.89 239.612 153.86 239.629C153.831 239.646 153.799 239.655 153.767 239.655H153.767Z" fill="#0C0C0C"/>
<path d="M324.135 237.751H241.152C240.633 237.751 240.12 237.621 239.646 237.37C239.173 237.12 238.749 236.754 238.405 236.297C238.06 235.84 237.802 235.302 237.647 234.719C237.492 234.135 237.443 233.52 237.505 232.913L239.725 211.108C239.832 210.058 240.263 209.091 240.935 208.389C241.607 207.688 242.474 207.3 243.373 207.3H324.135C325.109 207.3 326.043 207.756 326.732 208.566C327.421 209.377 327.808 210.476 327.808 211.623V233.428C327.808 234.575 327.421 235.674 326.732 236.485C326.043 237.295 325.109 237.75 324.135 237.751Z" fill="#292A2E"/>
<path d="M263.599 237.955L267.148 221.928C267.226 221.576 267.241 221.209 267.192 220.849C267.143 220.49 267.03 220.146 266.862 219.841C266.694 219.536 266.473 219.275 266.215 219.075C265.956 218.875 265.665 218.741 265.36 218.681C262.835 218.12 262.527 222.214 262.049 224.176L260.227 212.076C259.949 208.812 256.221 208.706 255.945 211.957C255.925 211.954 255.905 211.958 255.887 211.969C255.975 206.025 250.383 206.485 251.34 211.694C251.32 211.71 251.303 211.73 251.288 211.753C250.354 208.871 246.527 210.22 247.044 213.276L247.341 215.474C247.323 215.452 247.301 215.434 247.278 215.422C247.254 215.409 247.228 215.403 247.203 215.402C247.177 215.401 247.151 215.407 247.127 215.418C247.102 215.429 247.08 215.445 247.062 215.467C245.778 213.327 242.63 214.897 243.114 217.575L245.626 236.133C247.063 248.135 262.071 252.163 263.599 237.955Z" fill="#E98862"/>
<g opacity="0.2">
<path opacity="0.2" d="M257.7 223.943C257.148 223.882 255.968 212.59 255.747 212.236C255.738 212.173 255.75 212.108 255.781 212.056C255.813 212.003 255.86 211.967 255.914 211.956C255.968 211.945 256.023 211.96 256.068 211.997C256.112 212.034 256.143 212.09 256.152 212.153L257.869 223.662C257.874 223.694 257.873 223.726 257.867 223.758C257.861 223.789 257.85 223.818 257.834 223.844C257.819 223.871 257.799 223.893 257.775 223.91C257.752 223.927 257.726 223.938 257.7 223.943Z" fill="#0C0C0C"/>
</g>
<g opacity="0.2">
<path opacity="0.2" d="M253.405 224.976C253.352 224.985 253.298 224.969 253.254 224.932C253.21 224.895 253.181 224.839 253.172 224.776L251.253 211.932C251.243 211.868 251.255 211.803 251.287 211.751C251.318 211.698 251.366 211.663 251.419 211.651C251.983 211.591 253.353 224.422 253.577 224.693C253.582 224.724 253.582 224.757 253.576 224.789C253.57 224.821 253.558 224.851 253.542 224.877C253.526 224.903 253.506 224.926 253.482 224.943C253.459 224.96 253.433 224.971 253.405 224.976Z" fill="#0C0C0C"/>
</g>
<g opacity="0.2">
<path opacity="0.2" d="M248.762 226.127C248.709 226.136 248.654 226.12 248.611 226.083C248.567 226.046 248.538 225.989 248.529 225.927L246.997 215.681C246.99 215.618 247.003 215.555 247.035 215.504C247.066 215.454 247.113 215.419 247.165 215.408C247.218 215.397 247.272 215.411 247.316 215.446C247.36 215.482 247.391 215.536 247.402 215.597L248.934 225.843C248.939 225.875 248.938 225.908 248.932 225.939C248.926 225.971 248.915 226.001 248.899 226.028C248.883 226.054 248.862 226.076 248.839 226.093C248.815 226.11 248.789 226.122 248.762 226.127Z" fill="#0C0C0C"/>
</g>
<path d="M137.453 295.137H38.8083L32.5392 238.452C32.4134 237.314 32.4952 236.158 32.7791 235.061C33.0631 233.964 33.5426 232.95 34.1857 232.089C34.8289 231.227 35.6208 230.536 36.5087 230.063C37.3966 229.59 38.36 229.345 39.3346 229.345H124.152C125.817 229.345 127.425 230.057 128.676 231.35C129.927 232.642 130.736 234.426 130.952 236.369L137.453 295.137Z" fill="white"/>
<path d="M131.465 236.294C131.231 234.205 130.361 232.287 129.016 230.896C127.671 229.505 125.943 228.736 124.152 228.731H39.3346C38.4029 228.732 37.4798 228.94 36.6139 229.345C36.2476 229.515 35.8941 229.72 35.557 229.96C34.3213 230.827 33.3281 232.1 32.6999 233.623C32.0716 235.146 31.8358 236.852 32.0214 238.531L38.2862 295.137H39.3346L33.057 238.377C32.9406 237.326 33.016 236.258 33.2782 235.244C33.5403 234.23 33.9832 233.293 34.5773 232.497C35.1714 231.7 35.9031 231.062 36.7234 230.624C37.5438 230.187 38.434 229.96 39.3346 229.96H124.152C125.689 229.964 127.172 230.624 128.327 231.817C129.482 233.011 130.231 234.656 130.434 236.448L136.928 295.137H137.981L131.465 236.294Z" fill="#292A2E"/>
<path d="M131.699 295.137H33.0528L26.7837 238.452C26.6577 237.314 26.7393 236.158 27.0232 235.061C27.307 233.963 27.7866 232.95 28.4297 232.088C29.0729 231.226 29.8649 230.536 30.7529 230.063C31.6409 229.59 32.6044 229.345 33.5791 229.345H118.395C120.06 229.345 121.667 230.058 122.917 231.351C124.168 232.643 124.976 234.427 125.191 236.369L131.699 295.137Z" fill="#292A2E"/>
<path d="M125.71 236.294C125.565 234.992 125.171 233.745 124.558 232.648C123.945 231.551 123.128 230.632 122.17 229.96C121.833 229.721 121.479 229.516 121.113 229.345C120.249 228.94 119.327 228.731 118.397 228.731H33.5791C32.53 228.73 31.4929 228.993 30.5371 229.502C29.5813 230.011 28.7287 230.754 28.0365 231.682C27.3442 232.61 26.8282 233.701 26.5229 234.882C26.2175 236.063 26.1299 237.307 26.2658 238.531L32.5265 295.137H33.5791L27.3015 238.377C27.1851 237.326 27.2605 236.258 27.5226 235.244C27.7848 234.23 28.2277 233.293 28.8218 232.497C29.4159 231.7 30.1476 231.062 30.9679 230.624C31.7883 230.187 32.6785 229.96 33.5791 229.96H118.395C119.932 229.964 121.415 230.624 122.57 231.817C123.725 233.011 124.474 234.656 124.677 236.448L131.171 295.137H132.224L125.71 236.294Z" fill="#292A2E"/>
<path d="M299.139 171.261C299.236 171.246 300.317 192.337 321.135 190.498C335.547 189.227 340.686 171.232 341.016 171.232C339.462 170.843 336.846 170.278 336.155 169.844C333.886 168.41 330.653 166.916 329.922 161.73C329.501 158.74 330.216 143.447 329.995 140.422L308.297 146.233C308.606 152.621 310.77 167.43 303.187 170.05C301.927 170.486 300.566 170.885 299.139 171.261Z" fill="#E98862"/>
<path d="M308.907 156.196C317.644 156.99 328.86 152.627 330.972 138.907L332.877 126.527C334.989 112.806 330.577 100.378 319.6 98.0384C308.623 95.6982 298.706 105.072 296.595 118.792L295.751 124.273C295.489 126.161 295.337 128.068 295.296 129.98C295.154 135.032 294.956 142.717 297.078 148.362C299.086 153.693 303.328 155.689 308.907 156.196Z" fill="#E98862"/>
<path d="M328.5 97.335C325.032 96.0622 321.435 95.342 317.804 95.1935C317.452 93.5626 316.669 92.2963 315.516 91.7648C313.596 90.8822 311.251 92.3038 309.691 95.0427C308.824 93.4782 307.649 92.0685 306.091 91.4961C301.794 89.9211 301.581 97.1861 301.581 97.1861C301.581 97.1861 294.767 89.2732 294.554 99.3655C294.297 111.576 296.202 115.157 297.594 116.061C300.341 117.847 302.387 117.545 303.474 120.171C306.766 128.125 303.539 150.529 307.348 153.335C313.185 157.63 325.138 157.78 329.021 157.454C330.514 157.328 331.911 155.291 332.54 153.692C334.571 148.531 339.1 136.83 340.36 131.992C342.686 123.063 342.511 102.719 328.5 97.335Z" fill="#0C0C0C"/>
<path d="M304.74 145.333C308.11 144.902 310.451 140.31 310.085 136.341C309.72 132.373 306.786 130.537 303.415 130.967L301.924 133.847L301.843 145.701L304.74 145.333Z" fill="#E98862"/>
<path d="M361.04 291.829L361.144 291.836C361.144 291.836 361.069 289.468 361.04 291.829Z" fill="#333333"/>
<path d="M269.211 217.926C269.869 227.024 273.07 283.782 273.703 294.987H360.892C361.384 284.881 363.596 240.69 365.464 220.924C367.246 202.065 370.745 192.622 368.18 187.047C363.99 177.934 352.541 172.669 344.735 171.425C339.967 170.665 338.985 170.121 337.042 170.121H303.473C300.28 170.121 279.895 173.74 275.716 177.356C264.151 187.365 267.815 198.647 269.211 217.926Z" fill="#367CFF"/>
<path d="M379.508 294.393C382.072 294.393 384.599 293.664 386.872 292.267C389.146 290.871 391.099 288.848 392.566 286.372C394.032 283.896 394.968 281.04 395.295 278.046C395.622 275.053 395.329 272.011 394.441 269.179C393.54 266.304 372.423 200.495 368.403 188.3L338.635 202.495C340.896 209.351 349.086 235.339 355.665 256.273L344.734 254.874L341.294 292.122L377.785 294.283C378.357 294.356 378.932 294.393 379.508 294.393Z" fill="#367CFF"/>
<path d="M362.519 221.306L360.377 294.978L360.957 295.002L363.099 221.329L362.519 221.306Z" fill="#0C0C0C"/>
<path d="M256.599 294.393C254.034 294.393 251.508 293.663 249.234 292.267C246.961 290.87 245.008 288.848 243.541 286.372C242.075 283.896 241.139 281.04 240.812 278.046C240.486 275.052 240.778 272.01 241.666 269.179C242.566 266.304 264.568 200.204 268.588 188.01L297.471 202.496C295.211 209.352 287.021 235.34 280.441 256.274L291.372 254.876L294.813 292.123L258.321 294.284C257.749 294.357 257.174 294.393 256.599 294.393Z" fill="#367CFF"/>
<path d="M280.373 251.907C280.323 251.907 280.274 251.893 280.229 251.867C280.184 251.84 280.146 251.801 280.116 251.754C280.087 251.706 280.067 251.651 280.059 251.593C280.051 251.535 280.055 251.475 280.07 251.419L287.798 222.785C287.81 222.737 287.83 222.692 287.856 222.653C287.883 222.614 287.916 222.582 287.954 222.558C287.991 222.535 288.032 222.52 288.075 222.515C288.117 222.511 288.16 222.516 288.2 222.531C288.241 222.547 288.279 222.571 288.311 222.604C288.343 222.636 288.37 222.676 288.389 222.721C288.408 222.766 288.419 222.815 288.422 222.865C288.424 222.915 288.419 222.965 288.405 223.012L280.677 251.643C280.657 251.719 280.616 251.786 280.562 251.834C280.507 251.881 280.441 251.907 280.373 251.907Z" fill="#0C0C0C"/>
<path d="M379.406 238.452L373.133 295.137H274.491L280.994 236.369C281.209 234.427 282.017 232.643 283.267 231.351C284.518 230.059 286.125 229.346 287.789 229.345H372.607C373.582 229.345 374.546 229.589 375.434 230.062C376.322 230.534 377.115 231.225 377.758 232.087C378.402 232.949 378.882 233.962 379.166 235.06C379.45 236.157 379.532 237.314 379.406 238.452Z" fill="white"/>
<path d="M378.149 231.683C377.642 231.004 377.048 230.422 376.388 229.96C376.05 229.72 375.695 229.515 375.327 229.345C374.461 228.94 373.538 228.732 372.607 228.731H287.789C285.999 228.737 284.271 229.506 282.926 230.897C281.581 232.287 280.711 234.205 280.476 236.294L273.964 295.137H275.017L281.511 236.448C281.713 234.656 282.46 233.01 283.615 231.817C284.769 230.624 286.252 229.964 287.789 229.96H372.607C373.507 229.961 374.397 230.187 375.218 230.625C376.038 231.063 376.77 231.701 377.364 232.497C377.959 233.294 378.402 234.23 378.665 235.244C378.928 236.258 379.004 237.326 378.888 238.377L372.607 295.137H373.659L379.92 238.531C380.056 237.307 379.968 236.063 379.663 234.882C379.357 233.701 378.842 232.611 378.149 231.683Z" fill="#292A2E"/>
<path d="M385.161 238.452L378.888 295.137H280.246L286.749 236.369C286.905 234.964 287.372 233.631 288.105 232.506C288.837 231.381 289.809 230.502 290.922 229.96C291.752 229.552 292.644 229.343 293.545 229.345H378.366C379.341 229.346 380.304 229.591 381.192 230.064C382.079 230.537 382.871 231.227 383.514 232.089C384.157 232.951 384.637 233.964 384.921 235.061C385.205 236.158 385.287 237.314 385.161 238.452Z" fill="#292A2E"/>
<path d="M383.905 231.683C383.213 230.756 382.361 230.014 381.406 229.505C380.451 228.996 379.414 228.732 378.366 228.731H293.545C292.217 228.733 290.914 229.158 289.775 229.96C288.816 230.632 287.999 231.551 287.385 232.648C286.771 233.745 286.377 234.991 286.231 236.294L279.72 295.137H280.772L287.266 236.448C287.468 234.656 288.216 233.01 289.37 231.817C290.524 230.624 292.008 229.964 293.544 229.96H378.366C379.267 229.96 380.157 230.187 380.977 230.624C381.798 231.061 382.529 231.7 383.123 232.496C383.718 233.293 384.16 234.23 384.423 235.244C384.685 236.258 384.76 237.326 384.644 238.377L378.366 295.137H379.414L385.68 238.531C385.814 237.307 385.725 236.063 385.419 234.882C385.113 233.701 384.597 232.611 383.905 231.683Z" fill="#292A2E"/>
<path d="M5.72546 295.488H393.425C393.504 295.488 393.579 295.451 393.635 295.385C393.691 295.32 393.722 295.231 393.722 295.138C393.722 295.045 393.691 294.956 393.635 294.891C393.579 294.825 393.504 294.788 393.425 294.788H5.72546C5.64666 294.788 5.57109 294.825 5.51537 294.891C5.45965 294.956 5.42834 295.045 5.42834 295.138C5.42834 295.231 5.45965 295.32 5.51537 295.385C5.57109 295.451 5.64666 295.488 5.72546 295.488Z" fill="#292A2E"/>
<g opacity="0.65">
<path opacity="0.65" d="M5.72546 295.488H393.425C393.504 295.488 393.579 295.451 393.635 295.385C393.691 295.32 393.722 295.231 393.722 295.138C393.722 295.045 393.691 294.956 393.635 294.891C393.579 294.825 393.504 294.788 393.425 294.788H5.72546C5.64666 294.788 5.57109 294.825 5.51537 294.891C5.45965 294.956 5.42834 295.045 5.42834 295.138C5.42834 295.231 5.45965 295.32 5.51537 295.385C5.57109 295.451 5.64666 295.488 5.72546 295.488Z" fill="#292A2E"/>
</g>
<path d="M240.683 275.963L242.048 233.729L260.904 232.554L262.62 275.963H240.683Z" fill="#367CFF"/>
</svg>
